<svg xmlns="http://www.w3.org/2000/svg" xmlns:xlink="http://www.w3.org/1999/xlink" xmlns:lucid="lucid" width="5827.89" height="4022.69"><g transform="translate(722.0403501337057 1732.861436591923)" lucid:page-tab-id="0_0"><path d="M-721.04 80.74a6 6 0 0 1 6-6h611.85a6 6 0 0 1 6 6V535.4a6 6 0 0 1-6 6h-611.84a6 6 0 0 1-6-6z" stroke="#000" stroke-width="2" fill="#f4d9ff"/><path d="M-721.04 80.74a6 6 0 0 1 6-6h611.85a6 6 0 0 1 6 6V224.3a6 6 0 0 1-6 6h-611.84a6 6 0 0 1-6-6z" fill="none"/><use xlink:href="#a" transform="matrix(1,0,0,1,-716.0403501337048,79.74185491204486) translate(172.07161458333334 97.25130208333334)"/><path d="M-721.04 236.3a6 6 0 0 1 6-6h611.85a6 6 0 0 1 6 6v143.56a6 6 0 0 1-6 6h-611.84a6 6 0 0 1-6-6z" fill="none"/><use xlink:href="#b" transform="matrix(1,0,0,1,-716.0403501337048,235.2995293433458) translate(145.95833333333334 92.40104166666667)"/><use xlink:href="#c" transform="matrix(1,0,0,1,-716.0403501337048,235.2995293433458) translate(395.125 92.40104166666667)"/><path d="M-721.04 391.86a6 6 0 0 1 6-6h611.85a6 6 0 0 1 6 6V535.4a6 6 0 0 1-6 6h-611.84a6 6 0 0 1-6-6z" fill="none"/><use xlink:href="#d" transform="matrix(1,0,0,1,-716.0403501337049,390.85720377464696) translate(110.67187499999997 92.40104166666667)"/><path d="M472.83-333.4a6 6 0 0 1 6-6h611.84a6 6 0 0 1 6 6V904.07a6 6 0 0 1-6 6H478.83a6 6 0 0 1-6-6z" stroke="#000" stroke-width="2" fill="#c3f7c8"/><path d="M472.83-333.4a6 6 0 0 1 6-6h611.84a6 6 0 0 1 6 6v143.56a6 6 0 0 1-6 6H478.83a6 6 0 0 1-6-6z" fill="none"/><use xlink:href="#e" transform="matrix(1,0,0,1,477.82735215848373,-334.4006127479733) translate(145.46028645833331 97.25130208333334)"/><path d="M472.83-177.84a6 6 0 0 1 6-6h611.84a6 6 0 0 1 6 6v143.56a6 6 0 0 1-6 6H478.83a6 6 0 0 1-6-6z" fill="none"/><use xlink:href="#f" transform="matrix(1,0,0,1,477.82735215848373,-178.84293831667213) translate(224.5 92.40104166666667)"/><use xlink:href="#c" transform="matrix(1,0,0,1,477.82735215848373,-178.84293831667213) translate(316.58333333333337 92.40104166666667)"/><path d="M472.83-22.29a6 6 0 0 1 6-5.98h611.84a6 6 0 0 1 6 6v148.57a6 6 0 0 1-6 6H478.83a6 6 0 0 1-6-6z" fill="none"/><use xlink:href="#g" transform="matrix(1,0,0,1,477.8273521584828,-23.28526388537108) translate(210.42447916666666 94.90104166666667)"/><path d="M472.83 138.3a6 6 0 0 1 6-6h611.84a6 6 0 0 1 6 6v143.54a6 6 0 0 1-6 6H478.83a6 6 0 0 1-6-6z" fill="none"/><use xlink:href="#h" transform="matrix(1,0,0,1,477.8273521584828,137.28559885019519) translate(194.3828125 92.40104166666667)"/><path d="M472.83 293.84a6 6 0 0 1 6-6h611.84a6 6 0 0 1 6 6V437.4a6 6 0 0 1-6 6H478.83a6 6 0 0 1-6-6z" fill="none"/><use xlink:href="#i" transform="matrix(1,0,0,1,477.82735215848373,292.84327328149635) translate(194.265625 92.40104166666667)"/><path d="M472.83 449.4a6 6 0 0 1 6-6h611.84a6 6 0 0 1 6 6v143.56a6 6 0 0 1-6 6H478.83a6 6 0 0 1-6-6z" fill="none"/><use xlink:href="#j" transform="matrix(1,0,0,1,477.8273521584828,448.40094771279706) translate(191.73958333333334 92.40104166666667)"/><path d="M472.83 604.96a6 6 0 0 1 6-6h611.84a6 6 0 0 1 6 6v143.56a6 6 0 0 1-6 6H478.83a6 6 0 0 1-6-6z" fill="none"/><use xlink:href="#k" transform="matrix(1,0,0,1,477.8273521584828,603.958622144098) translate(240.26822916666666 92.40104166666667)"/><path d="M472.83 760.52a6 6 0 0 1 6-6h611.84a6 6 0 0 1 6 6v143.55a6 6 0 0 1-6 6H478.83a6 6 0 0 1-6-6z" fill="none"/><use xlink:href="#l" transform="matrix(1,0,0,1,477.82735215848373,759.5162965753989) translate(240.203125 92.40104166666667)"/><path d="M-721.04 1436.76a6 6 0 0 1 6-6h611.85a6 6 0 0 1 6 6v459.68a6 6 0 0 1-6 6h-611.84a6 6 0 0 1-6-6z" stroke="#000" stroke-width="2" fill="#cfe4ff"/><path d="M-721.04 1436.76a6 6 0 0 1 6-6h611.85a6 6 0 0 1 6 6v143.56a6 6 0 0 1-6 6h-611.84a6 6 0 0 1-6-6z" fill="none"/><use xlink:href="#m" transform="matrix(1,0,0,1,-716.0403501337053,1435.75853526599) translate(168.50716145833331 97.25130208333334)"/><path d="M-721.04 1592.32a6 6 0 0 1 6-6h611.85a6 6 0 0 1 6 6v143.55a6 6 0 0 1-6 6h-611.84a6 6 0 0 1-6-6z" fill="none"/><use xlink:href="#n" transform="matrix(1,0,0,1,-716.0403501337053,1591.3162096972912) translate(139.30468749999997 92.40104166666667)"/><use xlink:href="#c" transform="matrix(1,0,0,1,-716.0403501337053,1591.3162096972912) translate(401.77864583333337 92.40104166666667)"/><path d="M-721.04 1747.87a6 6 0 0 1 6-6h611.85a6 6 0 0 1 6 6v148.58a6 6 0 0 1-6 6h-611.84a6 6 0 0 1-6-6z" fill="none"/><use xlink:href="#g" transform="matrix(1,0,0,1,-716.0403501337057,1746.8738841285922) translate(210.42447916666666 94.90104166666667)"/><path d="M1220.74 1356.47a6 6 0 0 1 6-6h611.85a6 6 0 0 1 6 6v615.25a6 6 0 0 1-6 6h-611.86a6 6 0 0 1-6-6z" stroke="#000" stroke-width="2" fill="#dfe3e8"/><path d="M1220.74 1356.47a6 6 0 0 1 6-6h611.85a6 6 0 0 1 6 6v143.56a6 6 0 0 1-6 6h-611.86a6 6 0 0 1-6-6z" fill="none"/><use xlink:href="#o" transform="matrix(1,0,0,1,1225.741415629444,1355.4731038982072) translate(168.81640625 97.25130208333334)"/><path d="M1220.74 1512.03a6 6 0 0 1 6-6h611.85a6 6 0 0 1 6 6v143.56a6 6 0 0 1-6 6h-611.86a6 6 0 0 1-6-6z" fill="none"/><use xlink:href="#p" transform="matrix(1,0,0,1,1225.741415629444,1511.0307783295084) translate(129.35677083333334 92.40104166666667)"/><use xlink:href="#c" transform="matrix(1,0,0,1,1225.741415629444,1511.0307783295084) translate(411.7265625 92.40104166666667)"/><path d="M1220.74 1667.6a6 6 0 0 1 6-6h611.85a6 6 0 0 1 6 6v148.56a6 6 0 0 1-6 6h-611.86a6 6 0 0 1-6-6z" fill="none"/><use xlink:href="#q" transform="matrix(1,0,0,1,1225.7414156294435,1666.588452760809) translate(104.55208333333334 94.90104166666667)"/><path d="M1220.74 1828.16a6 6 0 0 1 6-6h611.85a6 6 0 0 1 6 6v143.56a6 6 0 0 1-6 6h-611.86a6 6 0 0 1-6-6z" fill="none"/><use xlink:href="#r" transform="matrix(1,0,0,1,1225.7414156294435,1827.1593154963757) translate(82.53385416666663 92.40104166666667)"/><path d="M2817.92 1045.36a6 6 0 0 1 6-6h611.84a6 6 0 0 1 6 6v1237.47a6 6 0 0 1-6 6h-611.84a6 6 0 0 1-6-6z" stroke="#000" stroke-width="2" fill="#e8e2c8"/><path d="M2817.92 1045.36a6 6 0 0 1 6-6h611.84a6 6 0 0 1 6 6v143.56a6 6 0 0 1-6 6h-611.84a6 6 0 0 1-6-6z" fill="none"/><use xlink:href="#s" transform="matrix(1,0,0,1,2822.918356361266,1044.357755035605) translate(128.74479166666666 97.25130208333334)"/><path d="M2817.92 1200.9a6 6 0 0 1 6-6h611.84a6 6 0 0 1 6 6v143.57a6 6 0 0 1-6 6h-611.84a6 6 0 0 1-6-6z" fill="none"/><use xlink:href="#t" transform="matrix(1,0,0,1,2822.918356361266,1199.915429466906) translate(119.3828125 92.40104166666667)"/><use xlink:href="#c" transform="matrix(1,0,0,1,2822.918356361266,1199.915429466906) translate(421.7005208333333 92.40104166666667)"/><path d="M2817.92 1356.47a6 6 0 0 1 6-6h611.84a6 6 0 0 1 6 6v148.57a6 6 0 0 1-6 6h-611.84a6 6 0 0 1-6-6z" fill="none"/><use xlink:href="#q" transform="matrix(1,0,0,1,2822.9183563612655,1355.4731038982072) translate(104.55208333333334 94.90104166666667)"/><path d="M2817.92 1517.04a6 6 0 0 1 6-6h611.84a6 6 0 0 1 6 6v143.56a6 6 0 0 1-6 6h-611.84a6 6 0 0 1-6-6z" fill="none"/><use xlink:href="#u" transform="matrix(1,0,0,1,2822.9183563612655,1516.0439666337734) translate(127.92447916666666 92.40104166666667)"/><path d="M2817.92 1672.6a6 6 0 0 1 6-6h611.84a6 6 0 0 1 6 6v143.56a6 6 0 0 1-6 6h-611.84a6 6 0 0 1-6-6z" fill="none"/><use xlink:href="#v" transform="matrix(1,0,0,1,2822.918356361266,1671.6016410650745) translate(141.765625 92.40104166666667)"/><path d="M2817.92 1828.16a6 6 0 0 1 6-6h611.84a6 6 0 0 1 6 6v143.56a6 6 0 0 1-6 6h-611.84a6 6 0 0 1-6-6z" fill="none"/><use xlink:href="#w" transform="matrix(1,0,0,1,2822.9183563612655,1827.1593154963753) translate(213.09375 92.40104166666667)"/><path d="M2817.92 1983.72a6 6 0 0 1 6-6h611.84a6 6 0 0 1 6 6v143.56a6 6 0 0 1-6 6h-611.84a6 6 0 0 1-6-6z" fill="none"/><use xlink:href="#x" transform="matrix(1,0,0,1,2822.9183563612655,1982.716989927676) translate(193.53645833333331 92.40104166666667)"/><path d="M2817.92 2139.28a6 6 0 0 1 6-6h611.84a6 6 0 0 1 6 6v143.55a6 6 0 0 1-6 6h-611.84a6 6 0 0 1-6-6z" fill="none"/><use xlink:href="#j" transform="matrix(1,0,0,1,2822.918356361266,2138.274664358977) translate(191.73958333333334 92.40104166666667)"/><path d="M2832.28-1725.86a6 6 0 0 1 6-6h611.84a6 6 0 0 1 6 6v459.68a6 6 0 0 1-6 6h-611.84a6 6 0 0 1-6-6z" stroke="#000" stroke-width="2" fill="#fff7a1"/><path d="M2832.28-1725.86a6 6 0 0 1 6-6h611.84a6 6 0 0 1 6 6v143.56a6 6 0 0 1-6 6h-611.84a6 6 0 0 1-6-6z" fill="none"/><use xlink:href="#y" transform="matrix(1,0,0,1,2837.2785592802825,-1726.861436591923) translate(107.79752604166666 97.25130208333334)"/><path d="M2832.28-1570.3a6 6 0 0 1 6-6h611.84a6 6 0 0 1 6 6v143.55a6 6 0 0 1-6 6h-611.84a6 6 0 0 1-6-6z" fill="none"/><use xlink:href="#z" transform="matrix(1,0,0,1,2837.2785592802825,-1571.3037621606218) translate(106.19270833333331 92.40104166666667)"/><use xlink:href="#c" transform="matrix(1,0,0,1,2837.2785592802825,-1571.3037621606218) translate(434.890625 92.40104166666667)"/><path d="M2832.28-1414.75a6 6 0 0 1 6-6h611.84a6 6 0 0 1 6 6v148.58a6 6 0 0 1-6 6h-611.84a6 6 0 0 1-6-6z" fill="none"/><use xlink:href="#A" transform="matrix(1,0,0,1,2837.2785592802825,-1415.746087729321) translate(76.36197916666663 94.90104166666667)"/><path d="M4283.38-1090.04a6 6 0 0 1 6-6h611.85a6 6 0 0 1 6 6v615.24a6 6 0 0 1-6 6h-611.85a6 6 0 0 1-6-6z" stroke="#000" stroke-width="2" fill="#dedeff"/><path d="M4283.38-1090.04a6 6 0 0 1 6-6h611.85a6 6 0 0 1 6 6v143.55a6 6 0 0 1-6 6h-611.85a6 6 0 0 1-6-6z" fill="none"/><use xlink:href="#B" transform="matrix(1,0,0,1,4288.3791593802625,-1091.044282115107) translate(67.90494791666666 97.25130208333334)"/><path d="M4283.38-934.5a6 6 0 0 1 6-6h611.85a6 6 0 0 1 6 6v143.57a6 6 0 0 1-6 6h-611.85a6 6 0 0 1-6-6z" fill="none"/><use xlink:href="#C" transform="matrix(1,0,0,1,4288.3791593802625,-935.4866076838059) translate(125.8671875 92.40104166666667)"/><use xlink:href="#c" transform="matrix(1,0,0,1,4288.3791593802625,-935.4866076838059) translate(415.2161458333333 92.40104166666667)"/><path d="M4283.38-778.93a6 6 0 0 1 6-6h611.85a6 6 0 0 1 6 6v148.57a6 6 0 0 1-6 6h-611.85a6 6 0 0 1-6-6z" fill="none"/><use xlink:href="#D" transform="matrix(1,0,0,1,4288.3791593802625,-779.9289332525047) translate(159.60416666666666 94.90104166666667)"/><path d="M4283.38-618.36a6 6 0 0 1 6-6h611.85a6 6 0 0 1 6 6v143.56a6 6 0 0 1-6 6h-611.85a6 6 0 0 1-6-6z" fill="none"/><use xlink:href="#E" transform="matrix(1,0,0,1,4288.3791593802625,-619.3580705169386) translate(61.49218749999997 92.40104166666667)"/><path d="M-413.56 877.87a6.6 6.6 0 0 1 8.88 0l114.6 104.18a5.45 5.45 0 0 1 0 8.07l-114.6 104.2a6.6 6.6 0 0 1-8.88 0l-114.6-104.2a5.45 5.45 0 0 1 0-8.07z" stroke="#000" stroke-width="2" fill="#fff"/><use xlink:href="#F" transform="matrix(1,0,0,1,-527.5997848751726,878.8296447420875) translate(47.48416666666667 126.83268229166667)"/><path d="M-409.12 545.42v325.73" stroke="#3a414a" stroke-width="8" stroke-linejoin="round" fill="none"/><path d="M-405.14 545.52h-7.95v-4.1h7.96zM-405.14 876.3l-.72-.42-1.05-.4-1.1-.25-1.12-.08-1.12.08-1.1.25-1.03.4-.72.4v-5.24h7.96z" stroke="#3a414a" stroke-width=".05" fill="#3a414a"/><path d="M-409.12 1101.03v325.73" stroke="#3a414a" stroke-width="8" stroke-linejoin="round" fill="none"/><path d="M-412.37 1096.3l1.04.4 1.1.24 1.1.1 1.13-.1 1.1-.24 1.04-.4.72-.4v5.23h-7.95v-5.24zM-405.14 1430.76h-7.95v-4.1h7.96z" stroke="#3a414a" stroke-width=".05" fill="#3a414a"/><path d="M-721.04 1335.17a6 6 0 0 1 6-6h266.17a6 6 0 0 1 6 6v89.6a6 6 0 0 1-6 6h-266.17a6 6 0 0 1-6-6z" stroke="#000" stroke-width="2" fill="#f4d9ff"/><use xlink:href="#G" transform="matrix(1,0,0,1,-716.0403501337053,1334.1668558611975) translate(52.13020833333333 65.32291666666667)"/><use xlink:href="#H" transform="matrix(1,0,0,1,-716.0403501337053,1334.1668558611975) translate(84.86458333333333 65.32291666666667)"/><use xlink:href="#I" transform="matrix(1,0,0,1,-716.0403501337053,1334.1668558611975) translate(120.48958333333333 65.32291666666667)"/><use xlink:href="#J" transform="matrix(1,0,0,1,-716.0403501337053,1334.1668558611975) translate(150.93229166666669 65.32291666666667)"/><use xlink:href="#K" transform="matrix(1,0,0,1,-716.0403501337053,1334.1668558611975) translate(196.765625 65.32291666666667)"/><path d="M-721.04 547.4a6 6 0 0 1 6-6h266.17a6 6 0 0 1 6 6V637a6 6 0 0 1-6 6h-266.17a6 6 0 0 1-6-6z" stroke="#000" stroke-width="2" fill="#cfe4ff"/><use xlink:href="#G" transform="matrix(1,0,0,1,-716.0403501337057,546.4148782059481) translate(57.234375 65.32291666666667)"/><use xlink:href="#H" transform="matrix(1,0,0,1,-716.0403501337057,546.4148782059481) translate(89.96875 65.32291666666667)"/><use xlink:href="#I" transform="matrix(1,0,0,1,-716.0403501337057,546.4148782059481) translate(125.59375 65.32291666666667)"/><use xlink:href="#L" transform="matrix(1,0,0,1,-716.0403501337057,546.4148782059481) translate(156.03645833333334 65.32291666666667)"/><use xlink:href="#K" transform="matrix(1,0,0,1,-716.0403501337057,546.4148782059481) translate(191.66145833333334 65.32291666666667)"/><path d="M576.56 1558.38a6.6 6.6 0 0 1 8.88 0l114.6 104.2a5.45 5.45 0 0 1 0 8.06l-114.6 104.18a6.6 6.6 0 0 1-8.88 0l-114.6-104.18a5.45 5.45 0 0 1 0-8.07z" stroke="#000" stroke-width="2" fill="#fff"/><use xlink:href="#F" transform="matrix(1,0,0,1,462.5172318067307,1559.3445790711928) translate(47.48416666666667 126.83268229166667)"/><path d="M-92.19 1666.6H455.2" stroke="#3a414a" stroke-width="8" stroke-linejoin="round" fill="none"/><path d="M-92.08 1670.58h-4.1v-7.95h4.1zM459.96 1663.5l-.44 1-.26 1.03-.1 1.07.1 1.07.26 1.04.44 1 .58.88h-5.48v-7.95h5.48z" stroke="#3a414a" stroke-width=".05" fill="#3a414a"/><path d="M706.84 1666.62l509.9 2.46" stroke="#3a414a" stroke-width="8" stroke-linejoin="round" fill="none"/><path d="M706.96 1662.65l-.04 7.95-5.45-.03.57-.87.44-1 .26-1.03.1-1.07-.1-1.07-.26-1.04-.44-1-.58-.88zM1221.3 1665.12l-.26.6-.22.93-.08.94v5.47l-4.12-.02.04-7.95z" stroke="#3a414a" stroke-width=".05" fill="#3a414a"/><path d="M942.57 1520.2a6 6 0 0 1 6-6h266.17a6 6 0 0 1 6 6v89.6a6 6 0 0 1-6 6H948.57a6 6 0 0 1-6-6z" stroke="#000" stroke-width="2" fill="#cfe4ff"/><use xlink:href="#G" transform="matrix(1,0,0,1,947.5666124683612,1519.2041602976037) translate(52.13020833333333 65.32291666666667)"/><use xlink:href="#H" transform="matrix(1,0,0,1,947.5666124683612,1519.2041602976037) translate(84.86458333333333 65.32291666666667)"/><use xlink:href="#I" transform="matrix(1,0,0,1,947.5666124683612,1519.2041602976037) translate(120.48958333333333 65.32291666666667)"/><use xlink:href="#J" transform="matrix(1,0,0,1,947.5666124683612,1519.2041602976037) translate(150.93229166666669 65.32291666666667)"/><use xlink:href="#K" transform="matrix(1,0,0,1,947.5666124683612,1519.2041602976037) translate(196.765625 65.32291666666667)"/><path d="M-97.2 1520.2a6 6 0 0 1 6-6H175a6 6 0 0 1 6 6v89.6a6 6 0 0 1-6 6H-91.2a6 6 0 0 1-6-6z" stroke="#000" stroke-width="2" fill="#dfe3e8"/><use xlink:href="#G" transform="matrix(1,0,0,1,-92.1936832301011,1519.2041602976037) translate(57.234375 65.32291666666667)"/><use xlink:href="#H" transform="matrix(1,0,0,1,-92.1936832301011,1519.2041602976037) translate(89.96875 65.32291666666667)"/><use xlink:href="#I" transform="matrix(1,0,0,1,-92.1936832301011,1519.2041602976037) translate(125.59375 65.32291666666667)"/><use xlink:href="#L" transform="matrix(1,0,0,1,-92.1936832301011,1519.2041602976037) translate(156.03645833333334 65.32291666666667)"/><use xlink:href="#K" transform="matrix(1,0,0,1,-92.1936832301011,1519.2041602976037) translate(191.66145833333334 65.32291666666667)"/><path d="M2326.34 1555.28a8.56 8.56 0 0 1 9.83 0l150.34 105.37a4.2 4.2 0 0 1 0 6.9l-150.33 105.36a8.56 8.56 0 0 1-9.83 0L2176 1667.55a4.2 4.2 0 0 1 0-6.9z" stroke="#000" stroke-width="2" fill="#fff"/><use xlink:href="#M" transform="matrix(1,0,0,1,2176.084296023093,1556.83798491906) translate(26.515625 126.90104166666667)"/><path d="M1848.5 1666.62l320.7-2.5" stroke="#3a414a" stroke-width="8" fill="none"/><path d="M1848.65 1670.6l-4.06.02v-3.03l-.1-.95-.2-.92-.37-.87-.5-.8-.6-.7-.7-.63-.08-.04 6.54-.06zM2174.66 1660.48l-.62.78-.46.88-.28.96-.1 1 .1 1 .28.95.46.88.62.78.4.36-5.93.04-.06-7.95 6.03-.05z" stroke="#3a414a" stroke-width=".05" fill="#3a414a"/><path d="M2493.3 1664.18l320.9 6.5" stroke="#3a414a" stroke-width="8" fill="none"/><path d="M2493.5 1660.2l-.17 7.95-5.86-.12.37-.32.63-.77.46-.88.28-.96.1-1-.1-1-.27-.96-.46-.88-.63-.78-.46-.4zM2821.3 1666.83l-.02.4-.1.03-.8.5-.7.6-.62.72-.5.8-.35.87-.2.9-.08.95v2.12l-3.9-.08.17-7.95z" stroke="#3a414a" stroke-width=".05" fill="#3a414a"/><path d="M2539.74 1520.2a6 6 0 0 1 6-6h266.18a6 6 0 0 1 6 6v89.6a6 6 0 0 1-6 6h-266.18a6 6 0 0 1-6-6z" stroke="#000" stroke-width="2" fill="#dfe3e8"/><use xlink:href="#G" transform="matrix(1,0,0,1,2544.7435532001837,1519.2041602976037) translate(52.13020833333333 65.32291666666667)"/><use xlink:href="#H" transform="matrix(1,0,0,1,2544.7435532001837,1519.2041602976037) translate(84.86458333333333 65.32291666666667)"/><use xlink:href="#I" transform="matrix(1,0,0,1,2544.7435532001837,1519.2041602976037) translate(120.48958333333333 65.32291666666667)"/><use xlink:href="#J" transform="matrix(1,0,0,1,2544.7435532001837,1519.2041602976037) translate(150.93229166666669 65.32291666666667)"/><use xlink:href="#K" transform="matrix(1,0,0,1,2544.7435532001837,1519.2041602976037) translate(196.765625 65.32291666666667)"/><path d="M1844.6 1520.2a6 6 0 0 1 6-6h266.16a6 6 0 0 1 6 6v89.6a6 6 0 0 1-6 6H1850.6a6 6 0 0 1-6-6z" stroke="#000" stroke-width="2" fill="#e8e2c8"/><use xlink:href="#G" transform="matrix(1,0,0,1,1849.5880825330473,1519.2041602976037) translate(57.234375 65.32291666666667)"/><use xlink:href="#H" transform="matrix(1,0,0,1,1849.5880825330473,1519.2041602976037) translate(89.96875 65.32291666666667)"/><use xlink:href="#I" transform="matrix(1,0,0,1,1849.5880825330473,1519.2041602976037) translate(125.59375 65.32291666666667)"/><use xlink:href="#L" transform="matrix(1,0,0,1,1849.5880825330473,1519.2041602976037) translate(156.03645833333334 65.32291666666667)"/><use xlink:href="#K" transform="matrix(1,0,0,1,1849.5880825330473,1519.2041602976037) translate(191.66145833333334 65.32291666666667)"/><path d="M2973.1 653.04a3.13 3.13 0 0 0 2.57 4.92H3284a3.13 3.13 0 0 0 2.58-4.92l-153.3-219.56a4.2 4.2 0 0 0-6.87 0z" stroke="#000" stroke-width="2" fill="#fff"/><use xlink:href="#N" transform="matrix(1,0,0,1,2974.6727663890038,433.5563964650721) translate(155.005 52.09635416666667)"/><use xlink:href="#O" transform="matrix(1,0,0,1,2974.6727663890038,433.5563964650721) translate(121.86697916666667 129.53385416666669)"/><use xlink:href="#P" transform="matrix(1,0,0,1,2974.6727663890038,433.5563964650721) translate(115.07010416666665 206.97135416666669)"/><path d="M3129.84 662.96v372.4" stroke="#3a414a" stroke-width="8" fill="none"/><path d="M3133.82 663.07h-7.95v-4.1h7.95zM3133.82 1039.36h-7.95v-4.1h7.95z" stroke="#3a414a" stroke-width=".05" fill="#3a414a"/><path d="M2194.07-333.4a6 6 0 0 1 6-6h611.85a6 6 0 0 1 6 6v459.7a6 6 0 0 1-6 6h-611.85a6 6 0 0 1-6-6z" stroke="#000" stroke-width="2" fill="#fff"/><path d="M2194.07-333.4a6 6 0 0 1 6-6h611.85a6 6 0 0 1 6 6v143.56a6 6 0 0 1-6 6h-611.85a6 6 0 0 1-6-6z" fill="none"/><use xlink:href="#Q" transform="matrix(1,0,0,1,2199.0716894576617,-334.4006127479733) translate(21.762369791666686 97.25130208333334)"/><path d="M2194.07-177.84a6 6 0 0 1 6-6h611.85a6 6 0 0 1 6 6v143.56a6 6 0 0 1-6 6h-611.85a6 6 0 0 1-6-6z" fill="none"/><use xlink:href="#R" transform="matrix(1,0,0,1,2199.0716894576617,-178.8429383166719) translate(227.84635416666669 92.40104166666667)"/><path d="M2194.07-22.29a6 6 0 0 1 6-5.98h611.85a6 6 0 0 1 6 6v148.57a6 6 0 0 1-6 6h-611.85a6 6 0 0 1-6-6z" fill="none"/><use xlink:href="#S" transform="matrix(1,0,0,1,2199.0716894576617,-23.28526388537125) translate(150.30729166666666 94.90104166666667)"/><path d="M3441.76-333.4a6 6 0 0 1 6-6h611.85a6 6 0 0 1 6 6v459.7a6 6 0 0 1-6 6h-611.84a6 6 0 0 1-6-6z" stroke="#000" stroke-width="2" fill="#fff"/><path d="M3441.76-333.4a6 6 0 0 1 6-6h611.85a6 6 0 0 1 6 6v143.56a6 6 0 0 1-6 6h-611.84a6 6 0 0 1-6-6z" fill="none"/><use xlink:href="#T" transform="matrix(1,0,0,1,3446.7650232648693,-334.40061274797335) translate(41.09830729166663 97.25130208333334)"/><path d="M3441.76-177.84a6 6 0 0 1 6-6h611.85a6 6 0 0 1 6 6v143.56a6 6 0 0 1-6 6h-611.84a6 6 0 0 1-6-6z" fill="none"/><use xlink:href="#U" transform="matrix(1,0,0,1,3446.7650232648693,-178.8429383166719) translate(115.54166666666666 92.40104166666667)"/><path d="M3441.76-22.29a6 6 0 0 1 6-5.98h611.85a6 6 0 0 1 6 6v148.57a6 6 0 0 1-6 6h-611.84a6 6 0 0 1-6-6z" fill="none"/><use xlink:href="#V" transform="matrix(1,0,0,1,3446.7650232648693,-23.285263885371307) translate(85.39843749999997 94.90104166666667)"/><path d="M2506 137.3v381.96a24 24 0 0 0 24 24h514.54" stroke="#3a414a" stroke-width="8" fill="none"/><path d="M2509.97 137.4h-7.95v-4.1h7.95zM3045.76 547.24h-1.33v-7.96h6.88z" stroke="#3a414a" stroke-width=".05" fill="#3a414a"/><path d="M3753.7 137.3v381.96a24 24 0 0 1-24 24h-514.55" stroke="#3a414a" stroke-width="8" fill="none"/><path d="M3757.66 137.4h-7.95v-4.1h7.96zM3215.25 547.24h-1.33l-5.55-7.96h6.88z" stroke="#3a414a" stroke-width=".05" fill="#3a414a"/><path d="M2062-948.7a6.6 6.6 0 0 1 8.87 0l114.6 104.2a5.45 5.45 0 0 1 0 8.06l-114.6 104.2a6.6 6.6 0 0 1-8.88 0l-114.62-104.2a5.45 5.45 0 0 1 0-8.07z" stroke="#000" stroke-width="2" fill="#fff"/><use xlink:href="#W" transform="matrix(1,0,0,1,1947.9451163473764,-947.7329690249807) translate(39.95812500000001 126.83268229166667)"/><path d="M2827.28-1496.02h-736.85a24 24 0 0 0-24 24v516.6" stroke="#3a414a" stroke-width="8" fill="none"/><path d="M2831.28-1492.04h-4.1v-7.95h4.1zM2070.4-950.27l-.72-.4-1.04-.42-1.1-.23-1.1-.1-1.13.1-1.08.24-1.05.42-.72.4v-5.24h7.95z" stroke="#3a414a" stroke-width=".05" fill="#3a414a"/><path d="M2066.43-725.54v166.57a24 24 0 0 1-24 24H808.75a24 24 0 0 0-24 24v166.57" stroke="#3a414a" stroke-width="8" fill="none"/><path d="M2063.17-730.27l1.05.4 1.1.25 1.1.08 1.13-.08 1.1-.24 1.03-.4.72-.42v5.25h-7.95v-5.25zM788.73-340.4h-7.95v-4.1h7.95z" stroke="#3a414a" stroke-width=".05" fill="#3a414a"/><path d="M2554.1-1614.17a6 6 0 0 1 6-6h266.18a6 6 0 0 1 6 6v89.6a6 6 0 0 1-6 6H2560.1a6 6 0 0 1-6-6z" stroke="#000" stroke-width="2" fill="#c3f7c8"/><g><use xlink:href="#G" transform="matrix(1,0,0,1,2559.1037561192,-1615.175224993755) translate(57.234375 65.32291666666667)"/><use xlink:href="#H" transform="matrix(1,0,0,1,2559.1037561192,-1615.175224993755) translate(89.96875 65.32291666666667)"/><use xlink:href="#I" transform="matrix(1,0,0,1,2559.1037561192,-1615.175224993755) translate(125.59375 65.32291666666667)"/><use xlink:href="#L" transform="matrix(1,0,0,1,2559.1037561192,-1615.175224993755) translate(156.03645833333334 65.32291666666667)"/><use xlink:href="#K" transform="matrix(1,0,0,1,2559.1037561192,-1615.175224993755) translate(191.66145833333334 65.32291666666667)"/></g><path d="M472.83-435a6 6 0 0 1 6-6H745a6 6 0 0 1 6 6v89.6a6 6 0 0 1-6 6H478.83a6 6 0 0 1-6-6z" stroke="#000" stroke-width="2" fill="#fff7a1"/><g><use xlink:href="#G" transform="matrix(1,0,0,1,477.82735215848373,-435.9922921527657) translate(57.234375 65.32291666666667)"/><use xlink:href="#H" transform="matrix(1,0,0,1,477.82735215848373,-435.9922921527657) translate(89.96875 65.32291666666667)"/><use xlink:href="#I" transform="matrix(1,0,0,1,477.82735215848373,-435.9922921527657) translate(125.59375 65.32291666666667)"/><use xlink:href="#L" transform="matrix(1,0,0,1,477.82735215848373,-435.9922921527657) translate(156.03645833333334 65.32291666666667)"/><use xlink:href="#K" transform="matrix(1,0,0,1,477.82735215848373,-435.9922921527657) translate(191.66145833333334 65.32291666666667)"/></g><path d="M4138.73 728.7a8.56 8.56 0 0 1 9.82 0l150.35 105.36a4.2 4.2 0 0 1 0 6.88L4148.55 946.3a8.56 8.56 0 0 1-9.82 0L3988.4 840.95a4.2 4.2 0 0 1 0-6.88z" stroke="#000" stroke-width="2" fill="#fff"/><g><use xlink:href="#X" transform="matrix(1,0,0,1,3988.4714425194643,730.2429380061185) translate(41.88 126.83268229166667)"/></g><path d="M3446.76 1216.9h672.88a24 24 0 0 0 24-24V952.88" stroke="#3a414a" stroke-width="8" fill="none"/><path d="M3446.87 1220.9h-4.1v-7.96h4.1zM4140.2 948.23l1.13.35 1.14.2 1.17.1 1.17-.1 1.15-.2 1.12-.35.55-.25v5h-7.95v-5z" stroke="#3a414a" stroke-width=".05" fill="#3a414a"/><path d="M4143.64 722.13V152.67a24 24 0 0 1 24-24h403.66a24 24 0 0 0 24-24V-464.8" stroke="#3a414a" stroke-width="8" fill="none"/><path d="M4147.6 727.02l-.53-.25-1.1-.35-1.16-.2-1.16-.1-1.17.1-1.15.2-1.1.35-.56.25v-5h7.95zM4599.28-464.7h-7.95v-4.1h7.95z" stroke="#3a414a" stroke-width=".05" fill="#3a414a"/><path d="M4629.05-462.8a6 6 0 0 1 6-6h266.18a6 6 0 0 1 6 6v89.6a6 6 0 0 1-6 6h-266.18a6 6 0 0 1-6-6z" stroke="#000" stroke-width="2" fill="#e8e2c8"/><g><use xlink:href="#G" transform="matrix(1,0,0,1,4634.051023122784,-463.800396085638) translate(45.64583333333333 65.32291666666667)"/><use xlink:href="#Y" transform="matrix(1,0,0,1,4634.051023122784,-463.800396085638) translate(78.38020833333333 65.32291666666667)"/><use xlink:href="#I" transform="matrix(1,0,0,1,4634.051023122784,-463.800396085638) translate(126.97395833333333 65.32291666666667)"/><use xlink:href="#J" transform="matrix(1,0,0,1,4634.051023122784,-463.800396085638) translate(157.41666666666669 65.32291666666667)"/><use xlink:href="#K" transform="matrix(1,0,0,1,4634.051023122784,-463.800396085638) translate(203.25 65.32291666666667)"/></g><path d="M3449.03 1263a6 6 0 0 1 6-6h266.17a6 6 0 0 1 6 6v89.6a6 6 0 0 1-6 6h-266.17a6 6 0 0 1-6-6z" stroke="#000" stroke-width="2" fill="#dedeff"/><g><use xlink:href="#G" transform="matrix(1,0,0,1,3454.026679198056,1261.9931483731843) translate(45.64583333333333 65.32291666666667)"/><use xlink:href="#Y" transform="matrix(1,0,0,1,3454.026679198056,1261.9931483731843) translate(78.38020833333333 65.32291666666667)"/><use xlink:href="#I" transform="matrix(1,0,0,1,3454.026679198056,1261.9931483731843) translate(126.97395833333333 65.32291666666667)"/><use xlink:href="#J" transform="matrix(1,0,0,1,3454.026679198056,1261.9931483731843) translate(157.41666666666669 65.32291666666667)"/><use xlink:href="#K" transform="matrix(1,0,0,1,3454.026679198056,1261.9931483731843) translate(203.25 65.32291666666667)"/></g><path d="M4898.88 985.76a8.56 8.56 0 0 1 9.83 0l150.35 105.37a4.2 4.2 0 0 1 0 6.88L4908.7 1203.4a8.56 8.56 0 0 1-9.82 0L4748.54 1098a4.2 4.2 0 0 1 0-6.87z" stroke="#000" stroke-width="2" fill="#fff"/><g><use xlink:href="#Z" transform="matrix(1,0,0,1,4748.625559022107,987.3143755530828) translate(41.74979166666666 126.83268229166667)"/></g><path d="M3446.76 1815.74H4308a24 24 0 0 0 24-24v-673.17a24 24 0 0 1 24-24h385.74" stroke="#3a414a" stroke-width="8" fill="none"/><path d="M3446.87 1819.72h-4.1v-7.95h4.1zM4747.2 1090.95l-.62.78-.46.9-.28.95-.1 1 .1 1 .28.94.46.9.62.77.42.35h-5.98v-7.95h5.98z" stroke="#3a414a" stroke-width=".05" fill="#3a414a"/><path d="M5065.85 1094.57h12a24 24 0 0 0 24-24v-2545.1a24 24 0 0 0-24-24H3460.12" stroke="#3a414a" stroke-width="8" fill="none"/><path d="M5065.95 1098.55h-5.98l.4-.36.64-.8.47-.88.28-.95.1-1-.1-1-.28-.95-.46-.88-.6-.8-.43-.34h5.98zM3460.23-1494.55h-4.1v-7.95h4.1z" stroke="#3a414a" stroke-width=".05" fill="#3a414a"/><path d="M3441.76 1867.82a6 6 0 0 1 6-6h266.18a6 6 0 0 1 6 6v89.6a6 6 0 0 1-6 6h-266.18a6 6 0 0 1-6-6z" stroke="#000" stroke-width="2" fill="#fff7a1"/><g><use xlink:href="#G" transform="matrix(1,0,0,1,3446.765023264869,1866.818830030896) translate(52.13020833333333 65.32291666666667)"/><use xlink:href="#H" transform="matrix(1,0,0,1,3446.765023264869,1866.818830030896) translate(84.86458333333333 65.32291666666667)"/><use xlink:href="#I" transform="matrix(1,0,0,1,3446.765023264869,1866.818830030896) translate(120.48958333333333 65.32291666666667)"/><use xlink:href="#J" transform="matrix(1,0,0,1,3446.765023264869,1866.818830030896) translate(150.93229166666669 65.32291666666667)"/><use xlink:href="#K" transform="matrix(1,0,0,1,3446.765023264869,1866.818830030896) translate(196.765625 65.32291666666667)"/></g><path d="M3456.13-1447.4a6 6 0 0 1 6-6h266.17a6 6 0 0 1 6 6v89.58a6 6 0 0 1-6 6h-266.18a6 6 0 0 1-6-6z" stroke="#000" stroke-width="2" fill="#e8e2c8"/><g><use xlink:href="#G" transform="matrix(1,0,0,1,3461.1252261838863,-1448.4090056715909) translate(50.75 65.32291666666667)"/><use xlink:href="#Y" transform="matrix(1,0,0,1,3461.1252261838863,-1448.4090056715909) translate(83.484375 65.32291666666667)"/><use xlink:href="#I" transform="matrix(1,0,0,1,3461.1252261838863,-1448.4090056715909) translate(132.078125 65.32291666666667)"/><use xlink:href="#L" transform="matrix(1,0,0,1,3461.1252261838863,-1448.4090056715909) translate(162.52083333333334 65.32291666666667)"/><use xlink:href="#K" transform="matrix(1,0,0,1,3461.1252261838863,-1448.4090056715909) translate(198.14583333333334 65.32291666666667)"/></g><defs><path d="M135 0v-1490h980v253H440v416h609v249H440V0H135" id="aa"/><path d="M49 0l509-1490h400L1480 0h-339l-115-346H497L386 0H49zm524-585h374c-75-213-124-402-192-666-66 268-110 453-182 666" id="ab"/><path d="M135 0v-1490h468l242 684c30 94 76 293 111 455 34-161 80-360 110-455l238-684h470V0h-307c0-447-3-765 11-1227-122 503-246 788-395 1227H826C676-435 552-717 427-1215c15 453 11 775 11 1215H135" id="ac"/><path d="M440-1490V0H135v-1490h305" id="ad"/><path d="M135 0v-1490h305v1237h643V0H135" id="ae"/><g id="a"><use transform="matrix(0.032552083333333336,0,0,0.032552083333333336,0,0)" xlink:href="#aa"/><use transform="matrix(0.032552083333333336,0,0,0.032552083333333336,33.07291666666667,0)" xlink:href="#ab"/><use transform="matrix(0.032552083333333336,0,0,0.032552083333333336,82.84505208333334,0)" xlink:href="#ac"/><use transform="matrix(0.032552083333333336,0,0,0.032552083333333336,144.95442708333334,0)" xlink:href="#ad"/><use transform="matrix(0.032552083333333336,0,0,0.032552083333333336,163.671875,0)" xlink:href="#ae"/><use transform="matrix(0.032552083333333336,0,0,0.032552083333333336,201.36718750000003,0)" xlink:href="#ad"/><use transform="matrix(0.032552083333333336,0,0,0.032552083333333336,220.08463541666666,0)" xlink:href="#ab"/></g><path d="M158 0v-1118h180V0H158zm91-1301c-68 0-125-53-125-119s57-119 125-119c69 0 126 53 126 119s-57 119-126 119" id="af"/><path d="M577 24c-279 0-473-224-473-580 0-354 195-576 474-576 218 0 287 134 324 193h14v-551h180V0H922v-173h-20C865-111 790 24 577 24zm27-161c203 0 314-172 314-421 0-247-108-413-314-413-212 0-317 181-317 413 0 235 108 421 317 421" id="ag"/><path d="M934 0v166H0V0h934" id="ah"/><path d="M678-1118v154H420V0H240v-964H20v-154h220v-149c0-194 155-293 318-293 85 0 141 18 168 30l-50 154c-19-6-47-17-97-17-111 0-159 58-159 166v109h258" id="ai"/><path d="M471 26C259 26 90-98 90-318c0-256 228-303 435-329 202-27 287-16 287-108 0-139-79-219-234-219-161 0-248 86-283 164l-173-57c86-203 278-265 451-265 150 0 419 46 419 395V0H815v-152h-12C765-73 660 26 471 26zm31-159c199 0 310-134 310-271v-155c-30 35-226 55-295 64-131 17-246 59-246 186 0 116 97 176 231 176" id="aj"/><path d="M158 0v-1118h175l1 205c55-151 181-225 313-225 147 0 245 90 285 228 53-141 190-228 352-228 194 0 352 125 352 384V0h-181v-749c0-161-105-225-225-225-151 0-243 103-243 244V0H807v-767c0-124-93-207-219-207-131 0-250 92-250 270V0H158" id="ak"/><path d="M338-1490V0H158v-1490h180" id="al"/><g id="b"><use transform="matrix(0.026041666666666668,0,0,0.026041666666666668,0,0)" xlink:href="#af"/><use transform="matrix(0.026041666666666668,0,0,0.026041666666666668,12.916666666666668,0)" xlink:href="#ag"/><use transform="matrix(0.026041666666666668,0,0,0.026041666666666668,45.57291666666667,0)" xlink:href="#ah"/><use transform="matrix(0.026041666666666668,0,0,0.026041666666666668,69.89583333333334,0)" xlink:href="#ai"/><use transform="matrix(0.026041666666666668,0,0,0.026041666666666668,88.80208333333334,0)" xlink:href="#aj"/><use transform="matrix(0.026041666666666668,0,0,0.026041666666666668,118.75,0)" xlink:href="#ak"/><use transform="matrix(0.026041666666666668,0,0,0.026041666666666668,165.46875,0)" xlink:href="#af"/><use transform="matrix(0.026041666666666668,0,0,0.026041666666666668,178.38541666666666,0)" xlink:href="#al"/><use transform="matrix(0.026041666666666668,0,0,0.026041666666666668,191.30208333333331,0)" xlink:href="#af"/><use transform="matrix(0.026041666666666668,0,0,0.026041666666666668,204.21874999999997,0)" xlink:href="#aj"/></g><path fill="#e81313" d="M135 0v-1490h581c339 0 533 210 533 503 0 295-197 500-540 500H440V0H135zm305-733h220c186 0 274-104 274-254s-88-251-275-251H440v505" id="am"/><path fill="#e81313" d="M135 0v-1490h305c1 251 0 501-5 746 157-254 405-512 598-746h373L849-845 1422 0h-361L638-644 440-426V0H135" id="an"/><g id="c"><use transform="matrix(0.026041666666666668,0,0,0.026041666666666668,0,0)" xlink:href="#am"/><use transform="matrix(0.026041666666666668,0,0,0.026041666666666668,34.55729166666667,0)" xlink:href="#an"/></g><path d="M338-670V0H158v-1118h173l1 207c72-158 192-221 342-221 226 0 378 139 378 422V0H872v-695c0-172-96-275-252-275-161 0-282 109-282 300" id="ao"/><path d="M613 24c-304 0-509-231-509-576 0-350 205-580 509-580 305 0 511 230 511 580 0 345-206 576-511 576zm0-161c226 0 329-195 329-415 0-222-103-419-329-419-223 0-326 196-326 419 0 220 103 415 326 415" id="ap"/><path d="M677 24c-213 0-288-135-325-197h-20V0H158v-1490h180v551h14c37-59 106-193 324-193 279 0 474 222 474 576 0 356-194 580-473 580zm-27-161c209 0 317-186 317-421 0-232-105-413-317-413-206 0-314 166-314 413 0 249 111 421 314 421" id="aq"/><path d="M158 0v-1118h174v172h12c41-113 157-188 290-188 26 0 70 2 91 3v181c-11-2-60-10-108-10-161 0-279 109-279 260V0H158" id="ar"/><path d="M628 24c-324 0-524-230-524-574 0-343 198-582 503-582 237 0 487 146 487 559v75H286c9 234 145 362 343 362 132 0 231-58 273-172l174 48C1024-91 857 24 628 24zM287-650h624c-17-190-120-322-304-322-192 0-309 151-320 322" id="as"/><path d="M598-1118v154H368v674c0 100 37 144 132 144 23 0 62-6 92-12L629-6c-37 13-88 20-134 20-193 0-307-107-307-290v-688H20v-154h168v-266h180v266h230" id="at"/><path d="M537 14c-226 0-379-139-379-422v-710h180v695c0 172 97 275 253 275 160 0 281-109 281-300v-670h181V0H879v-209C806-46 684 14 537 14" id="au"/><g id="d"><use transform="matrix(0.026041666666666668,0,0,0.026041666666666668,0,0)" xlink:href="#ao"/><use transform="matrix(0.026041666666666668,0,0,0.026041666666666668,31.510416666666668,0)" xlink:href="#ap"/><use transform="matrix(0.026041666666666668,0,0,0.026041666666666668,63.489583333333336,0)" xlink:href="#ak"/><use transform="matrix(0.026041666666666668,0,0,0.026041666666666668,110.20833333333334,0)" xlink:href="#aq"/><use transform="matrix(0.026041666666666668,0,0,0.026041666666666668,142.86458333333334,0)" xlink:href="#ar"/><use transform="matrix(0.026041666666666668,0,0,0.026041666666666668,162.05729166666669,0)" xlink:href="#as"/><use transform="matrix(0.026041666666666668,0,0,0.026041666666666668,193.15104166666669,0)" xlink:href="#ah"/><use transform="matrix(0.026041666666666668,0,0,0.026041666666666668,219.27083333333334,0)" xlink:href="#ao"/><use transform="matrix(0.026041666666666668,0,0,0.026041666666666668,250.78125,0)" xlink:href="#aj"/><use transform="matrix(0.026041666666666668,0,0,0.026041666666666668,280.7291666666667,0)" xlink:href="#at"/><use transform="matrix(0.026041666666666668,0,0,0.026041666666666668,298.17708333333337,0)" xlink:href="#au"/><use transform="matrix(0.026041666666666668,0,0,0.026041666666666668,329.7135416666667,0)" xlink:href="#ar"/><use transform="matrix(0.026041666666666668,0,0,0.026041666666666668,349.7916666666667,0)" xlink:href="#aj"/><use transform="matrix(0.026041666666666668,0,0,0.026041666666666668,379.73958333333337,0)" xlink:href="#al"/></g><path d="M135 0v-1490h581c339 0 533 210 533 503 0 295-197 500-540 500H440V0H135zm305-733h220c186 0 274-104 274-254s-88-251-275-251H440v505" id="av"/><path d="M135 0v-1490h997v253H440v360h640v249H440v375h694V0H135" id="aw"/><path d="M135 0v-1490h581c339 0 533 192 533 485 0 204-94 351-264 424L1302 0H964L680-532H440V0H135zm305-779h220c186 0 274-77 274-226 0-150-88-233-275-233H440v459" id="ax"/><path d="M681 22C323 22 94-145 85-462h297c10 151 131 226 296 226 163 0 271-77 271-190 0-102-95-149-257-189l-164-41c-252-61-403-188-403-405 0-269 236-449 560-449 330 0 546 183 551 445H941c-11-119-106-188-259-188-156 0-244 72-244 172-3 156 226 185 373 221 250 61 445 186 445 436 0 271-213 446-575 446" id="ay"/><path d="M789 20C394 20 94-260 94-744c0-487 300-766 695-766s695 279 695 766c0 485-300 764-695 764zm0-271c231 0 385-174 385-493 0-321-154-495-385-495s-385 175-385 495c0 319 154 493 385 493" id="az"/><path d="M135 0v-1490h340l471 754c59 97 122 210 187 365-32-387-14-721-19-1119h312V0h-341C855-382 627-689 427-1113c32 420 16 695 20 1113H135" id="aA"/><g id="e"><use transform="matrix(0.032552083333333336,0,0,0.032552083333333336,0,0)" xlink:href="#av"/><use transform="matrix(0.032552083333333336,0,0,0.032552083333333336,43.196614583333336,0)" xlink:href="#aw"/><use transform="matrix(0.032552083333333336,0,0,0.032552083333333336,83.69140625,0)" xlink:href="#ax"/><use transform="matrix(0.032552083333333336,0,0,0.032552083333333336,127.47395833333334,0)" xlink:href="#ay"/><use transform="matrix(0.032552083333333336,0,0,0.032552083333333336,171.12630208333334,0)" xlink:href="#az"/><use transform="matrix(0.032552083333333336,0,0,0.032552083333333336,222.49348958333334,0)" xlink:href="#aA"/><use transform="matrix(0.032552083333333336,0,0,0.032552083333333336,273.3072916666667,0)" xlink:href="#ab"/></g><g id="f"><use transform="matrix(0.026041666666666668,0,0,0.026041666666666668,0,0)" xlink:href="#ag"/><use transform="matrix(0.026041666666666668,0,0,0.026041666666666668,32.65625,0)" xlink:href="#ao"/><use transform="matrix(0.026041666666666668,0,0,0.026041666666666668,64.16666666666667,0)" xlink:href="#af"/></g><g id="g"><use transform="matrix(0.026041666666666668,0,0,0.026041666666666668,0,0)" xlink:href="#ao"/><use transform="matrix(0.026041666666666668,0,0,0.026041666666666668,31.510416666666668,0)" xlink:href="#ap"/><use transform="matrix(0.026041666666666668,0,0,0.026041666666666668,63.489583333333336,0)" xlink:href="#ak"/><use transform="matrix(0.026041666666666668,0,0,0.026041666666666668,110.20833333333334,0)" xlink:href="#aq"/><use transform="matrix(0.026041666666666668,0,0,0.026041666666666668,142.86458333333334,0)" xlink:href="#ar"/><use transform="matrix(0.026041666666666668,0,0,0.026041666666666668,162.05729166666669,0)" xlink:href="#as"/></g><path d="M158 418v-1536h174v179h20c37-59 106-193 324-193 279 0 474 222 474 576 0 356-194 580-473 580-213 0-288-135-325-197h-14v591H158zm492-555c209 0 317-186 317-421 0-232-105-413-317-413-206 0-314 166-314 413 0 249 111 421 314 421" id="aB"/><path d="M538 24C308 24 148-78 108-271l171-41c32 123 123 178 257 178 156 0 256-77 256-169 0-77-54-128-164-154l-186-44c-203-48-300-148-300-305 0-192 176-326 414-326 230 0 351 112 402 269l-163 42c-31-80-94-158-238-158-133 0-233 69-233 162 0 83 57 129 188 160l169 40c203 48 298 149 298 302 0 196-179 339-441 339" id="aC"/><g id="h"><use transform="matrix(0.026041666666666668,0,0,0.026041666666666668,0,0)" xlink:href="#aj"/><use transform="matrix(0.026041666666666668,0,0,0.026041666666666668,29.947916666666668,0)" xlink:href="#aB"/><use transform="matrix(0.026041666666666668,0,0,0.026041666666666668,62.60416666666667,0)" xlink:href="#as"/><use transform="matrix(0.026041666666666668,0,0,0.026041666666666668,93.69791666666667,0)" xlink:href="#al"/><use transform="matrix(0.026041666666666668,0,0,0.026041666666666668,106.61458333333334,0)" xlink:href="#al"/><use transform="matrix(0.026041666666666668,0,0,0.026041666666666668,119.53125,0)" xlink:href="#af"/><use transform="matrix(0.026041666666666668,0,0,0.026041666666666668,132.44791666666669,0)" xlink:href="#ag"/><use transform="matrix(0.026041666666666668,0,0,0.026041666666666668,165.10416666666669,0)" xlink:href="#ap"/><use transform="matrix(0.026041666666666668,0,0,0.026041666666666668,197.08333333333334,0)" xlink:href="#aC"/></g><path d="M613 24c-304 0-509-231-509-576 0-350 205-580 509-580 216 0 392 114 453 309l-173 49c-33-115-133-197-280-197-223 0-326 196-326 419 0 220 103 415 326 415 150 0 252-85 285-206l172 49C1010-95 832 24 613 24" id="aD"/><g id="i"><use transform="matrix(0.026041666666666668,0,0,0.026041666666666668,0,0)" xlink:href="#ag"/><use transform="matrix(0.026041666666666668,0,0,0.026041666666666668,32.65625,0)" xlink:href="#ap"/><use transform="matrix(0.026041666666666668,0,0,0.026041666666666668,64.63541666666667,0)" xlink:href="#ak"/><use transform="matrix(0.026041666666666668,0,0,0.026041666666666668,111.35416666666667,0)" xlink:href="#af"/><use transform="matrix(0.026041666666666668,0,0,0.026041666666666668,124.27083333333334,0)" xlink:href="#aD"/><use transform="matrix(0.026041666666666668,0,0,0.026041666666666668,154.73958333333334,0)" xlink:href="#af"/><use transform="matrix(0.026041666666666668,0,0,0.026041666666666668,167.65625,0)" xlink:href="#al"/><use transform="matrix(0.026041666666666668,0,0,0.026041666666666668,180.57291666666666,0)" xlink:href="#af"/><use transform="matrix(0.026041666666666668,0,0,0.026041666666666668,193.48958333333331,0)" xlink:href="#ap"/></g><path d="M481 0L54-1118h197c107 314 236 620 325 951 87-331 217-637 324-951h197L670 0H481" id="aE"/><g id="j"><use transform="matrix(0.026041666666666668,0,0,0.026041666666666668,0,0)" xlink:href="#aB"/><use transform="matrix(0.026041666666666668,0,0,0.026041666666666668,32.65625,0)" xlink:href="#ar"/><use transform="matrix(0.026041666666666668,0,0,0.026041666666666668,51.84895833333333,0)" xlink:href="#ap"/><use transform="matrix(0.026041666666666668,0,0,0.026041666666666668,82.78645833333333,0)" xlink:href="#aE"/><use transform="matrix(0.026041666666666668,0,0,0.026041666666666668,112.76041666666664,0)" xlink:href="#af"/><use transform="matrix(0.026041666666666668,0,0,0.026041666666666668,125.67708333333334,0)" xlink:href="#ao"/><use transform="matrix(0.026041666666666668,0,0,0.026041666666666668,157.1875,0)" xlink:href="#aD"/><use transform="matrix(0.026041666666666668,0,0,0.026041666666666668,187.65625,0)" xlink:href="#af"/><use transform="matrix(0.026041666666666668,0,0,0.026041666666666668,200.57291666666666,0)" xlink:href="#aj"/></g><g id="k"><use transform="matrix(0.026041666666666668,0,0,0.026041666666666668,0,0)" xlink:href="#ak"/><use transform="matrix(0.026041666666666668,0,0,0.026041666666666668,46.71875,0)" xlink:href="#ap"/><use transform="matrix(0.026041666666666668,0,0,0.026041666666666668,77.65625,0)" xlink:href="#aE"/><use transform="matrix(0.026041666666666668,0,0,0.026041666666666668,107.63020833333334,0)" xlink:href="#af"/><use transform="matrix(0.026041666666666668,0,0,0.026041666666666668,120.546875,0)" xlink:href="#al"/></g><g id="l"><use transform="matrix(0.026041666666666668,0,0,0.026041666666666668,0,0)" xlink:href="#as"/><use transform="matrix(0.026041666666666668,0,0,0.026041666666666668,31.09375,0)" xlink:href="#ak"/><use transform="matrix(0.026041666666666668,0,0,0.026041666666666668,77.8125,0)" xlink:href="#aj"/><use transform="matrix(0.026041666666666668,0,0,0.026041666666666668,107.76041666666667,0)" xlink:href="#af"/><use transform="matrix(0.026041666666666668,0,0,0.026041666666666668,120.67708333333334,0)" xlink:href="#al"/></g><path d="M795 20C377 20 94-272 94-743c0-483 302-767 694-767 335 0 593 206 635 500h-310c-42-142-154-229-320-229-230 0-389 177-389 493s154 495 393 495c212 0 340-120 345-311H818v-232h620v186c0 391-269 628-643 628" id="aF"/><g id="m"><use transform="matrix(0.032552083333333336,0,0,0.032552083333333336,0,0)" xlink:href="#aF"/><use transform="matrix(0.032552083333333336,0,0,0.032552083333333336,50.032552083333336,0)" xlink:href="#aw"/><use transform="matrix(0.032552083333333336,0,0,0.032552083333333336,90.52734375,0)" xlink:href="#aA"/><use transform="matrix(0.032552083333333336,0,0,0.032552083333333336,141.34114583333334,0)" xlink:href="#aw"/><use transform="matrix(0.032552083333333336,0,0,0.032552083333333336,181.8359375,0)" xlink:href="#ax"/><use transform="matrix(0.032552083333333336,0,0,0.032552083333333336,225.61848958333334,0)" xlink:href="#az"/></g><path d="M611 442c-248 0-391-105-460-228l146-94c47 65 117 165 314 165 178 0 307-82 307-266v-224h-17C863-141 792-18 576-18c-268 0-472-195-472-546 0-346 197-568 476-568 216 0 288 133 326 193h17v-179h175V29c0 289-215 413-487 413zm-5-620c203 0 314-146 314-390 0-237-108-403-314-403-213 0-319 180-319 403 0 230 109 390 319 390" id="aG"/><g id="n"><use transform="matrix(0.026041666666666668,0,0,0.026041666666666668,0,0)" xlink:href="#af"/><use transform="matrix(0.026041666666666668,0,0,0.026041666666666668,12.916666666666668,0)" xlink:href="#ag"/><use transform="matrix(0.026041666666666668,0,0,0.026041666666666668,45.57291666666667,0)" xlink:href="#ah"/><use transform="matrix(0.026041666666666668,0,0,0.026041666666666668,69.89583333333334,0)" xlink:href="#aG"/><use transform="matrix(0.026041666666666668,0,0,0.026041666666666668,102.60416666666669,0)" xlink:href="#as"/><use transform="matrix(0.026041666666666668,0,0,0.026041666666666668,133.69791666666669,0)" xlink:href="#ao"/><use transform="matrix(0.026041666666666668,0,0,0.026041666666666668,165.20833333333334,0)" xlink:href="#as"/><use transform="matrix(0.026041666666666668,0,0,0.026041666666666668,196.30208333333334,0)" xlink:href="#ar"/><use transform="matrix(0.026041666666666668,0,0,0.026041666666666668,215.49479166666669,0)" xlink:href="#ap"/></g><path d="M786 20C389 20 94-260 94-744c0-487 299-766 692-766 339 0 597 194 641 529h-309c-28-162-156-258-326-258-233 0-388 179-388 495 0 323 157 493 387 493 170 0 298-97 328-259h309c-34 277-266 530-642 530" id="aH"/><g id="o"><use transform="matrix(0.032552083333333336,0,0,0.032552083333333336,0,0)" xlink:href="#aw"/><use transform="matrix(0.032552083333333336,0,0,0.032552083333333336,40.49479166666667,0)" xlink:href="#ay"/><use transform="matrix(0.032552083333333336,0,0,0.032552083333333336,84.14713541666667,0)" xlink:href="#av"/><use transform="matrix(0.032552083333333336,0,0,0.032552083333333336,127.34375,0)" xlink:href="#aw"/><use transform="matrix(0.032552083333333336,0,0,0.032552083333333336,167.83854166666669,0)" xlink:href="#aH"/><use transform="matrix(0.032552083333333336,0,0,0.032552083333333336,217.15494791666669,0)" xlink:href="#ad"/><use transform="matrix(0.032552083333333336,0,0,0.032552083333333336,235.87239583333334,0)" xlink:href="#aw"/></g><g id="p"><use transform="matrix(0.026041666666666668,0,0,0.026041666666666668,0,0)" xlink:href="#af"/><use transform="matrix(0.026041666666666668,0,0,0.026041666666666668,12.916666666666668,0)" xlink:href="#ag"/><use transform="matrix(0.026041666666666668,0,0,0.026041666666666668,45.57291666666667,0)" xlink:href="#ah"/><use transform="matrix(0.026041666666666668,0,0,0.026041666666666668,69.89583333333334,0)" xlink:href="#as"/><use transform="matrix(0.026041666666666668,0,0,0.026041666666666668,100.98958333333334,0)" xlink:href="#aC"/><use transform="matrix(0.026041666666666668,0,0,0.026041666666666668,129.140625,0)" xlink:href="#aB"/><use transform="matrix(0.026041666666666668,0,0,0.026041666666666668,161.796875,0)" xlink:href="#as"/><use transform="matrix(0.026041666666666668,0,0,0.026041666666666668,192.890625,0)" xlink:href="#aD"/><use transform="matrix(0.026041666666666668,0,0,0.026041666666666668,223.359375,0)" xlink:href="#af"/><use transform="matrix(0.026041666666666668,0,0,0.026041666666666668,236.27604166666669,0)" xlink:href="#as"/></g><g id="q"><use transform="matrix(0.026041666666666668,0,0,0.026041666666666668,0,0)" xlink:href="#ao"/><use transform="matrix(0.026041666666666668,0,0,0.026041666666666668,31.510416666666668,0)" xlink:href="#ap"/><use transform="matrix(0.026041666666666668,0,0,0.026041666666666668,63.489583333333336,0)" xlink:href="#ak"/><use transform="matrix(0.026041666666666668,0,0,0.026041666666666668,110.20833333333334,0)" xlink:href="#aq"/><use transform="matrix(0.026041666666666668,0,0,0.026041666666666668,142.86458333333334,0)" xlink:href="#ar"/><use transform="matrix(0.026041666666666668,0,0,0.026041666666666668,162.05729166666669,0)" xlink:href="#as"/><use transform="matrix(0.026041666666666668,0,0,0.026041666666666668,193.15104166666669,0)" xlink:href="#ah"/><use transform="matrix(0.026041666666666668,0,0,0.026041666666666668,217.47395833333334,0)" xlink:href="#aD"/><use transform="matrix(0.026041666666666668,0,0,0.026041666666666668,247.94270833333334,0)" xlink:href="#ap"/><use transform="matrix(0.026041666666666668,0,0,0.026041666666666668,279.921875,0)" xlink:href="#ak"/><use transform="matrix(0.026041666666666668,0,0,0.026041666666666668,326.640625,0)" xlink:href="#au"/><use transform="matrix(0.026041666666666668,0,0,0.026041666666666668,358.1770833333333,0)" xlink:href="#ak"/></g><g id="r"><use transform="matrix(0.026041666666666668,0,0,0.026041666666666668,0,0)" xlink:href="#ao"/><use transform="matrix(0.026041666666666668,0,0,0.026041666666666668,31.510416666666668,0)" xlink:href="#ap"/><use transform="matrix(0.026041666666666668,0,0,0.026041666666666668,63.489583333333336,0)" xlink:href="#ak"/><use transform="matrix(0.026041666666666668,0,0,0.026041666666666668,110.20833333333334,0)" xlink:href="#aq"/><use transform="matrix(0.026041666666666668,0,0,0.026041666666666668,142.86458333333334,0)" xlink:href="#ar"/><use transform="matrix(0.026041666666666668,0,0,0.026041666666666668,162.05729166666669,0)" xlink:href="#as"/><use transform="matrix(0.026041666666666668,0,0,0.026041666666666668,193.15104166666669,0)" xlink:href="#ah"/><use transform="matrix(0.026041666666666668,0,0,0.026041666666666668,217.47395833333334,0)" xlink:href="#aD"/><use transform="matrix(0.026041666666666668,0,0,0.026041666666666668,247.94270833333334,0)" xlink:href="#af"/><use transform="matrix(0.026041666666666668,0,0,0.026041666666666668,260.859375,0)" xlink:href="#as"/><use transform="matrix(0.026041666666666668,0,0,0.026041666666666668,291.953125,0)" xlink:href="#ao"/><use transform="matrix(0.026041666666666668,0,0,0.026041666666666668,323.4635416666667,0)" xlink:href="#at"/><use transform="matrix(0.026041666666666668,0,0,0.026041666666666668,340.91145833333337,0)" xlink:href="#af"/><use transform="matrix(0.026041666666666668,0,0,0.026041666666666668,353.82812500000006,0)" xlink:href="#ai"/><use transform="matrix(0.026041666666666668,0,0,0.026041666666666668,373.56770833333337,0)" xlink:href="#af"/><use transform="matrix(0.026041666666666668,0,0,0.026041666666666668,386.48437500000006,0)" xlink:href="#aD"/><use transform="matrix(0.026041666666666668,0,0,0.026041666666666668,416.95312500000006,0)" xlink:href="#ap"/></g><path d="M567 20C257 20 68-148 68-448v-87h305v92c0 143 75 217 194 217s193-74 193-218v-1046h302v1041c0 301-188 469-495 469" id="aI"/><g id="s"><use transform="matrix(0.032552083333333336,0,0,0.032552083333333336,0,0)" xlink:href="#aw"/><use transform="matrix(0.032552083333333336,0,0,0.032552083333333336,40.49479166666667,0)" xlink:href="#aI"/><use transform="matrix(0.032552083333333336,0,0,0.032552083333333336,79.45963541666667,0)" xlink:href="#aw"/><use transform="matrix(0.032552083333333336,0,0,0.032552083333333336,119.95442708333334,0)" xlink:href="#ac"/><use transform="matrix(0.032552083333333336,0,0,0.032552083333333336,182.06380208333334,0)" xlink:href="#av"/><use transform="matrix(0.032552083333333336,0,0,0.032552083333333336,225.26041666666669,0)" xlink:href="#ae"/><use transform="matrix(0.032552083333333336,0,0,0.032552083333333336,262.9557291666667,0)" xlink:href="#ab"/><use transform="matrix(0.032552083333333336,0,0,0.032552083333333336,312.72786458333337,0)" xlink:href="#ax"/></g><path d="M157-1118h181V80c1 225-123 350-364 338V252c126 9 184-48 183-172v-1198zm91-183c-68 0-125-53-125-119s57-119 125-119c69 0 126 53 126 119s-57 119-126 119" id="aJ"/><g id="t"><use transform="matrix(0.026041666666666668,0,0,0.026041666666666668,0,0)" xlink:href="#af"/><use transform="matrix(0.026041666666666668,0,0,0.026041666666666668,12.916666666666668,0)" xlink:href="#ag"/><use transform="matrix(0.026041666666666668,0,0,0.026041666666666668,45.57291666666667,0)" xlink:href="#ah"/><use transform="matrix(0.026041666666666668,0,0,0.026041666666666668,69.89583333333334,0)" xlink:href="#as"/><use transform="matrix(0.026041666666666668,0,0,0.026041666666666668,100.98958333333334,0)" xlink:href="#aJ"/><use transform="matrix(0.026041666666666668,0,0,0.026041666666666668,113.90625,0)" xlink:href="#as"/><use transform="matrix(0.026041666666666668,0,0,0.026041666666666668,145,0)" xlink:href="#ak"/><use transform="matrix(0.026041666666666668,0,0,0.026041666666666668,191.71875,0)" xlink:href="#aB"/><use transform="matrix(0.026041666666666668,0,0,0.026041666666666668,224.375,0)" xlink:href="#al"/><use transform="matrix(0.026041666666666668,0,0,0.026041666666666668,237.29166666666669,0)" xlink:href="#aj"/><use transform="matrix(0.026041666666666668,0,0,0.026041666666666668,267.2395833333333,0)" xlink:href="#ar"/></g><path d="M338-670V0H158v-1490h180v566c73-149 190-208 336-208 226 0 379 139 379 422V0H872v-695c0-172-96-275-252-275-161 0-282 109-282 300" id="aK"/><g id="u"><use transform="matrix(0.026041666666666668,0,0,0.026041666666666668,0,0)" xlink:href="#ai"/><use transform="matrix(0.026041666666666668,0,0,0.026041666666666668,18.177083333333336,0)" xlink:href="#as"/><use transform="matrix(0.026041666666666668,0,0,0.026041666666666668,49.270833333333336,0)" xlink:href="#aD"/><use transform="matrix(0.026041666666666668,0,0,0.026041666666666668,79.73958333333334,0)" xlink:href="#aK"/><use transform="matrix(0.026041666666666668,0,0,0.026041666666666668,111.2760416666667,0)" xlink:href="#aj"/><use transform="matrix(0.026041666666666668,0,0,0.026041666666666668,141.22395833333334,0)" xlink:href="#ah"/><use transform="matrix(0.026041666666666668,0,0,0.026041666666666668,165.546875,0)" xlink:href="#aD"/><use transform="matrix(0.026041666666666668,0,0,0.026041666666666668,196.53645833333334,0)" xlink:href="#aj"/><use transform="matrix(0.026041666666666668,0,0,0.026041666666666668,226.484375,0)" xlink:href="#aB"/><use transform="matrix(0.026041666666666668,0,0,0.026041666666666668,259.140625,0)" xlink:href="#at"/><use transform="matrix(0.026041666666666668,0,0,0.026041666666666668,276.5885416666667,0)" xlink:href="#au"/><use transform="matrix(0.026041666666666668,0,0,0.026041666666666668,308.125,0)" xlink:href="#ar"/><use transform="matrix(0.026041666666666668,0,0,0.026041666666666668,328.203125,0)" xlink:href="#aj"/></g><g id="v"><use transform="matrix(0.026041666666666668,0,0,0.026041666666666668,0,0)" xlink:href="#aK"/><use transform="matrix(0.026041666666666668,0,0,0.026041666666666668,31.536458333333336,0)" xlink:href="#ap"/><use transform="matrix(0.026041666666666668,0,0,0.026041666666666668,63.515625,0)" xlink:href="#ar"/><use transform="matrix(0.026041666666666668,0,0,0.026041666666666668,83.59375,0)" xlink:href="#aj"/><use transform="matrix(0.026041666666666668,0,0,0.026041666666666668,113.54166666666667,0)" xlink:href="#ah"/><use transform="matrix(0.026041666666666668,0,0,0.026041666666666668,137.86458333333334,0)" xlink:href="#aD"/><use transform="matrix(0.026041666666666668,0,0,0.026041666666666668,168.85416666666669,0)" xlink:href="#aj"/><use transform="matrix(0.026041666666666668,0,0,0.026041666666666668,198.80208333333334,0)" xlink:href="#aB"/><use transform="matrix(0.026041666666666668,0,0,0.026041666666666668,231.45833333333334,0)" xlink:href="#at"/><use transform="matrix(0.026041666666666668,0,0,0.026041666666666668,248.90625,0)" xlink:href="#au"/><use transform="matrix(0.026041666666666668,0,0,0.026041666666666668,280.4427083333333,0)" xlink:href="#ar"/><use transform="matrix(0.026041666666666668,0,0,0.026041666666666668,300.5208333333333,0)" xlink:href="#aj"/></g><g id="w"><use transform="matrix(0.026041666666666668,0,0,0.026041666666666668,0,0)" xlink:href="#at"/><use transform="matrix(0.026041666666666668,0,0,0.026041666666666668,17.708333333333336,0)" xlink:href="#aj"/><use transform="matrix(0.026041666666666668,0,0,0.026041666666666668,47.65625,0)" xlink:href="#ak"/><use transform="matrix(0.026041666666666668,0,0,0.026041666666666668,94.375,0)" xlink:href="#aj"/><use transform="matrix(0.026041666666666668,0,0,0.026041666666666668,124.32291666666667,0)" xlink:href="#ao"/><use transform="matrix(0.026041666666666668,0,0,0.026041666666666668,155.83333333333334,0)" xlink:href="#ap"/></g><g id="x"><use transform="matrix(0.026041666666666668,0,0,0.026041666666666668,0,0)" xlink:href="#al"/><use transform="matrix(0.026041666666666668,0,0,0.026041666666666668,12.916666666666668,0)" xlink:href="#ap"/><use transform="matrix(0.026041666666666668,0,0,0.026041666666666668,44.895833333333336,0)" xlink:href="#aD"/><use transform="matrix(0.026041666666666668,0,0,0.026041666666666668,75.88541666666667,0)" xlink:href="#aj"/><use transform="matrix(0.026041666666666668,0,0,0.026041666666666668,105.83333333333334,0)" xlink:href="#al"/><use transform="matrix(0.026041666666666668,0,0,0.026041666666666668,118.75,0)" xlink:href="#af"/><use transform="matrix(0.026041666666666668,0,0,0.026041666666666668,131.66666666666669,0)" xlink:href="#ag"/><use transform="matrix(0.026041666666666668,0,0,0.026041666666666668,164.32291666666669,0)" xlink:href="#aj"/><use transform="matrix(0.026041666666666668,0,0,0.026041666666666668,194.27083333333334,0)" xlink:href="#ag"/></g><g id="y"><use transform="matrix(0.032552083333333336,0,0,0.032552083333333336,0,0)" xlink:href="#aH"/><use transform="matrix(0.032552083333333336,0,0,0.032552083333333336,49.31640625,0)" xlink:href="#az"/><use transform="matrix(0.032552083333333336,0,0,0.032552083333333336,100.68359375000001,0)" xlink:href="#ae"/><use transform="matrix(0.032552083333333336,0,0,0.032552083333333336,138.37890625,0)" xlink:href="#aw"/><use transform="matrix(0.032552083333333336,0,0,0.032552083333333336,178.87369791666669,0)" xlink:href="#aH"/><use transform="matrix(0.032552083333333336,0,0,0.032552083333333336,228.19010416666669,0)" xlink:href="#aH"/><use transform="matrix(0.032552083333333336,0,0,0.032552083333333336,277.5065104166667,0)" xlink:href="#ad"/><use transform="matrix(0.032552083333333336,0,0,0.032552083333333336,296.22395833333337,0)" xlink:href="#az"/><use transform="matrix(0.032552083333333336,0,0,0.032552083333333336,347.59114583333337,0)" xlink:href="#aA"/></g><g id="z"><use transform="matrix(0.026041666666666668,0,0,0.026041666666666668,0,0)" xlink:href="#af"/><use transform="matrix(0.026041666666666668,0,0,0.026041666666666668,12.916666666666668,0)" xlink:href="#ag"/><use transform="matrix(0.026041666666666668,0,0,0.026041666666666668,45.57291666666667,0)" xlink:href="#ah"/><use transform="matrix(0.026041666666666668,0,0,0.026041666666666668,69.89583333333334,0)" xlink:href="#aD"/><use transform="matrix(0.026041666666666668,0,0,0.026041666666666668,100.36458333333334,0)" xlink:href="#ap"/><use transform="matrix(0.026041666666666668,0,0,0.026041666666666668,132.34375,0)" xlink:href="#al"/><use transform="matrix(0.026041666666666668,0,0,0.026041666666666668,145.26041666666666,0)" xlink:href="#as"/><use transform="matrix(0.026041666666666668,0,0,0.026041666666666668,176.35416666666666,0)" xlink:href="#aD"/><use transform="matrix(0.026041666666666668,0,0,0.026041666666666668,206.82291666666666,0)" xlink:href="#aD"/><use transform="matrix(0.026041666666666668,0,0,0.026041666666666668,237.29166666666669,0)" xlink:href="#af"/><use transform="matrix(0.026041666666666668,0,0,0.026041666666666668,250.2083333333333,0)" xlink:href="#ap"/><use transform="matrix(0.026041666666666668,0,0,0.026041666666666668,282.1875,0)" xlink:href="#ao"/></g><g id="A"><use transform="matrix(0.026041666666666668,0,0,0.026041666666666668,0,0)" xlink:href="#ao"/><use transform="matrix(0.026041666666666668,0,0,0.026041666666666668,31.510416666666668,0)" xlink:href="#ap"/><use transform="matrix(0.026041666666666668,0,0,0.026041666666666668,63.489583333333336,0)" xlink:href="#ak"/><use transform="matrix(0.026041666666666668,0,0,0.026041666666666668,110.20833333333334,0)" xlink:href="#aq"/><use transform="matrix(0.026041666666666668,0,0,0.026041666666666668,142.86458333333334,0)" xlink:href="#ar"/><use transform="matrix(0.026041666666666668,0,0,0.026041666666666668,162.05729166666669,0)" xlink:href="#as"/><use transform="matrix(0.026041666666666668,0,0,0.026041666666666668,193.15104166666669,0)" xlink:href="#ah"/><use transform="matrix(0.026041666666666668,0,0,0.026041666666666668,217.47395833333334,0)" xlink:href="#aD"/><use transform="matrix(0.026041666666666668,0,0,0.026041666666666668,247.94270833333334,0)" xlink:href="#ap"/><use transform="matrix(0.026041666666666668,0,0,0.026041666666666668,279.921875,0)" xlink:href="#al"/><use transform="matrix(0.026041666666666668,0,0,0.026041666666666668,292.8385416666667,0)" xlink:href="#as"/><use transform="matrix(0.026041666666666668,0,0,0.026041666666666668,323.9322916666667,0)" xlink:href="#aD"/><use transform="matrix(0.026041666666666668,0,0,0.026041666666666668,354.4010416666667,0)" xlink:href="#aD"/><use transform="matrix(0.026041666666666668,0,0,0.026041666666666668,384.8697916666667,0)" xlink:href="#af"/><use transform="matrix(0.026041666666666668,0,0,0.026041666666666668,397.78645833333337,0)" xlink:href="#ap"/><use transform="matrix(0.026041666666666668,0,0,0.026041666666666668,429.765625,0)" xlink:href="#ao"/></g><path d="M135 0v-1490h591c327 0 492 160 492 383 0 177-115 286-268 320v15c168 8 326 140 326 361 0 236-176 411-512 411H135zm305-251h264c179 0 258-76 258-189 0-125-97-215-250-215H440v404zm0-613h241c131 0 228-74 228-194 0-109-79-183-222-183H440v377" id="aL"/><path d="M75-1237v-253h1217v253H837V0H531v-1237H75" id="aM"/><g id="B"><use transform="matrix(0.032552083333333336,0,0,0.032552083333333336,0,0)" xlink:href="#ae"/><use transform="matrix(0.032552083333333336,0,0,0.032552083333333336,37.6953125,0)" xlink:href="#ab"/><use transform="matrix(0.032552083333333336,0,0,0.032552083333333336,87.46744791666667,0)" xlink:href="#aL"/><use transform="matrix(0.032552083333333336,0,0,0.032552083333333336,131.57552083333334,0)" xlink:href="#az"/><use transform="matrix(0.032552083333333336,0,0,0.032552083333333336,182.94270833333334,0)" xlink:href="#ax"/><use transform="matrix(0.032552083333333336,0,0,0.032552083333333336,226.72526041666669,0)" xlink:href="#ab"/><use transform="matrix(0.032552083333333336,0,0,0.032552083333333336,270.5729166666667,0)" xlink:href="#aM"/><use transform="matrix(0.032552083333333336,0,0,0.032552083333333336,312.9557291666667,0)" xlink:href="#az"/><use transform="matrix(0.032552083333333336,0,0,0.032552083333333336,364.3229166666667,0)" xlink:href="#ax"/><use transform="matrix(0.032552083333333336,0,0,0.032552083333333336,408.10546875000006,0)" xlink:href="#ad"/><use transform="matrix(0.032552083333333336,0,0,0.032552083333333336,426.8229166666667,0)" xlink:href="#az"/></g><g id="C"><use transform="matrix(0.026041666666666668,0,0,0.026041666666666668,0,0)" xlink:href="#aD"/><use transform="matrix(0.026041666666666668,0,0,0.026041666666666668,30.46875,0)" xlink:href="#ap"/><use transform="matrix(0.026041666666666668,0,0,0.026041666666666668,62.44791666666667,0)" xlink:href="#ag"/><use transform="matrix(0.026041666666666668,0,0,0.026041666666666668,95.10416666666667,0)" xlink:href="#af"/><use transform="matrix(0.026041666666666668,0,0,0.026041666666666668,108.02083333333334,0)" xlink:href="#aG"/><use transform="matrix(0.026041666666666668,0,0,0.026041666666666668,140.72916666666669,0)" xlink:href="#ap"/><use transform="matrix(0.026041666666666668,0,0,0.026041666666666668,172.70833333333334,0)" xlink:href="#ah"/><use transform="matrix(0.026041666666666668,0,0,0.026041666666666668,198.828125,0)" xlink:href="#al"/><use transform="matrix(0.026041666666666668,0,0,0.026041666666666668,211.74479166666666,0)" xlink:href="#aj"/><use transform="matrix(0.026041666666666668,0,0,0.026041666666666668,241.6927083333333,0)" xlink:href="#aq"/></g><g id="D"><use transform="matrix(0.026041666666666668,0,0,0.026041666666666668,0,0)" xlink:href="#ao"/><use transform="matrix(0.026041666666666668,0,0,0.026041666666666668,31.510416666666668,0)" xlink:href="#ap"/><use transform="matrix(0.026041666666666668,0,0,0.026041666666666668,63.489583333333336,0)" xlink:href="#ak"/><use transform="matrix(0.026041666666666668,0,0,0.026041666666666668,110.20833333333334,0)" xlink:href="#aq"/><use transform="matrix(0.026041666666666668,0,0,0.026041666666666668,142.86458333333334,0)" xlink:href="#ar"/><use transform="matrix(0.026041666666666668,0,0,0.026041666666666668,162.05729166666669,0)" xlink:href="#as"/><use transform="matrix(0.026041666666666668,0,0,0.026041666666666668,193.15104166666669,0)" xlink:href="#ah"/><use transform="matrix(0.026041666666666668,0,0,0.026041666666666668,219.27083333333334,0)" xlink:href="#al"/><use transform="matrix(0.026041666666666668,0,0,0.026041666666666668,232.1875,0)" xlink:href="#aj"/><use transform="matrix(0.026041666666666668,0,0,0.026041666666666668,262.1354166666667,0)" xlink:href="#aq"/></g><g id="E"><use transform="matrix(0.026041666666666668,0,0,0.026041666666666668,0,0)" xlink:href="#ag"/><use transform="matrix(0.026041666666666668,0,0,0.026041666666666668,32.65625,0)" xlink:href="#af"/><use transform="matrix(0.026041666666666668,0,0,0.026041666666666668,45.57291666666667,0)" xlink:href="#ar"/><use transform="matrix(0.026041666666666668,0,0,0.026041666666666668,64.765625,0)" xlink:href="#as"/><use transform="matrix(0.026041666666666668,0,0,0.026041666666666668,95.859375,0)" xlink:href="#aD"/><use transform="matrix(0.026041666666666668,0,0,0.026041666666666668,126.328125,0)" xlink:href="#aD"/><use transform="matrix(0.026041666666666668,0,0,0.026041666666666668,156.796875,0)" xlink:href="#af"/><use transform="matrix(0.026041666666666668,0,0,0.026041666666666668,169.71354166666666,0)" xlink:href="#ap"/><use transform="matrix(0.026041666666666668,0,0,0.026041666666666668,201.69270833333331,0)" xlink:href="#ao"/><use transform="matrix(0.026041666666666668,0,0,0.026041666666666668,233.20312499999997,0)" xlink:href="#ah"/><use transform="matrix(0.026041666666666668,0,0,0.026041666666666668,257.52604166666663,0)" xlink:href="#aD"/><use transform="matrix(0.026041666666666668,0,0,0.026041666666666668,287.99479166666663,0)" xlink:href="#ap"/><use transform="matrix(0.026041666666666668,0,0,0.026041666666666668,319.9739583333333,0)" xlink:href="#ak"/><use transform="matrix(0.026041666666666668,0,0,0.026041666666666668,366.6927083333333,0)" xlink:href="#aB"/><use transform="matrix(0.026041666666666668,0,0,0.026041666666666668,399.3489583333333,0)" xlink:href="#al"/><use transform="matrix(0.026041666666666668,0,0,0.026041666666666668,412.265625,0)" xlink:href="#as"/><use transform="matrix(0.026041666666666668,0,0,0.026041666666666668,443.359375,0)" xlink:href="#at"/><use transform="matrix(0.026041666666666668,0,0,0.026041666666666668,461.06770833333337,0)" xlink:href="#aj"/></g><path d="M98-1322v-168h1126v168H757V0H567v-1322H98" id="aN"/><g id="F"><use transform="matrix(0.026041666666666668,0,0,0.026041666666666668,0,0)" xlink:href="#aN"/><use transform="matrix(0.026041666666666668,0,0,0.026041666666666668,34.427083333333336,0)" xlink:href="#af"/><use transform="matrix(0.026041666666666668,0,0,0.026041666666666668,47.34375,0)" xlink:href="#as"/><use transform="matrix(0.026041666666666668,0,0,0.026041666666666668,78.4375,0)" xlink:href="#ao"/><use transform="matrix(0.026041666666666668,0,0,0.026041666666666668,109.94791666666667,0)" xlink:href="#as"/></g><path d="M169-607c0-330 107-732 258-974h279c-145 311-231 674-231 974 0 262 67 512 231 886H427C258-1 169-307 169-607" id="aO"/><use transform="matrix(0.026041666666666668,0,0,0.026041666666666668,0,0)" xlink:href="#aO" id="G"/><path d="M749-1490V0H444v-1221h-10L93-980v-279l329-231h327" id="aP"/><use transform="matrix(0.026041666666666668,0,0,0.026041666666666668,0,0)" xlink:href="#aP" id="H"/><path d="M119 395l88-620h300L323 395H119" id="aQ"/><use transform="matrix(0.026041666666666668,0,0,0.026041666666666668,0,0)" xlink:href="#aQ" id="I"/><path d="M428-647V0H128v-1118h283l4 231c63-156 176-245 348-245 232 0 384 159 384 421V0H847v-659c0-139-76-222-202-222-128 0-217 86-217 234" id="aR"/><use transform="matrix(0.026041666666666668,0,0,0.026041666666666668,0,0)" xlink:href="#aR" id="J"/><path d="M67 279c166-379 230-627 230-886 0-300-86-663-230-974h278c151 241 258 644 258 974 0 302-90 608-258 886H67" id="aS"/><use transform="matrix(0.026041666666666668,0,0,0.026041666666666668,0,0)" xlink:href="#aS" id="K"/><use transform="matrix(0.026041666666666668,0,0,0.026041666666666668,0,0)" xlink:href="#aP" id="L"/><path d="M180 0v-1490h510c348 0 508 209 508 474 0 266-160 477-507 477H370V0H180zm190-706h312c236 0 327-133 327-310 0-176-91-307-329-307H370v617" id="aT"/><g id="M"><use transform="matrix(0.026041666666666668,0,0,0.026041666666666668,0,0)" xlink:href="#aT"/><use transform="matrix(0.026041666666666668,0,0,0.026041666666666668,33.776041666666664,0)" xlink:href="#as"/><use transform="matrix(0.026041666666666668,0,0,0.026041666666666668,64.86979166666666,0)" xlink:href="#ar"/><use transform="matrix(0.026041666666666668,0,0,0.026041666666666668,85.78124999999999,0)" xlink:href="#at"/><use transform="matrix(0.026041666666666668,0,0,0.026041666666666668,102.70833333333333,0)" xlink:href="#as"/><use transform="matrix(0.026041666666666668,0,0,0.026041666666666668,133.80208333333331,0)" xlink:href="#ao"/><use transform="matrix(0.026041666666666668,0,0,0.026041666666666668,165.31249999999997,0)" xlink:href="#as"/><use transform="matrix(0.026041666666666668,0,0,0.026041666666666668,196.40624999999997,0)" xlink:href="#aD"/><use transform="matrix(0.026041666666666668,0,0,0.026041666666666668,226.87499999999997,0)" xlink:href="#as"/></g><path d="M180 0v-1490h908v168H370v486h669v168H370v500h727V0H180" id="aU"/><path d="M657 26c-323 0-524-166-541-416h195c15 169 171 246 346 246 202 0 356-106 356-265 5-203-294-238-475-293-239-73-380-191-380-389 0-252 224-419 512-419 294 0 499 171 508 396H992c-17-145-151-228-328-228-193 0-321 102-321 242 0 156 175 211 284 241l149 41c160 44 422 134 422 412 0 244-197 432-541 432" id="aV"/><g id="O"><use transform="matrix(0.026041666666666668,0,0,0.026041666666666668,0,0)" xlink:href="#aU"/><use transform="matrix(0.026041666666666668,0,0,0.026041666666666668,32.05729166666667,0)" xlink:href="#aV"/></g><path d="M763 24c-353 0-583-224-583-531v-983h190v968c0 214 149 370 393 370 243 0 391-156 391-370v-968h190v983c0 307-230 531-581 531" id="aW"/><path d="M180 0v-1490h224l606 953c40 63 108 177 176 312-27-437-7-821-13-1265h190V0h-226C860-448 622-778 356-1262c27 476 11 792 15 1262H180" id="aX"/><g id="P"><use transform="matrix(0.026041666666666668,0,0,0.026041666666666668,0,0)" xlink:href="#aW"/><use transform="matrix(0.026041666666666668,0,0,0.026041666666666668,39.6875,0)" xlink:href="#aX"/></g><g id="Q"><use transform="matrix(0.032552083333333336,0,0,0.032552083333333336,0,0)" xlink:href="#aH"/><use transform="matrix(0.032552083333333336,0,0,0.032552083333333336,49.31640625,0)" xlink:href="#az"/><use transform="matrix(0.032552083333333336,0,0,0.032552083333333336,100.68359375000001,0)" xlink:href="#ae"/><use transform="matrix(0.032552083333333336,0,0,0.032552083333333336,138.37890625,0)" xlink:href="#aw"/><use transform="matrix(0.032552083333333336,0,0,0.032552083333333336,178.87369791666669,0)" xlink:href="#aH"/><use transform="matrix(0.032552083333333336,0,0,0.032552083333333336,228.19010416666669,0)" xlink:href="#aH"/><use transform="matrix(0.032552083333333336,0,0,0.032552083333333336,277.5065104166667,0)" xlink:href="#ad"/><use transform="matrix(0.032552083333333336,0,0,0.032552083333333336,296.22395833333337,0)" xlink:href="#az"/><use transform="matrix(0.032552083333333336,0,0,0.032552083333333336,347.59114583333337,0)" xlink:href="#aA"/><use transform="matrix(0.032552083333333336,0,0,0.032552083333333336,398.4049479166667,0)" xlink:href="#ab"/><use transform="matrix(0.032552083333333336,0,0,0.032552083333333336,448.17708333333337,0)" xlink:href="#aL"/><use transform="matrix(0.032552083333333336,0,0,0.032552083333333336,492.28515625000006,0)" xlink:href="#ae"/><use transform="matrix(0.032552083333333336,0,0,0.032552083333333336,529.98046875,0)" xlink:href="#aw"/></g><g id="R"><use transform="matrix(0.026041666666666668,0,0,0.026041666666666668,0,0)" xlink:href="#aB"/><use transform="matrix(0.026041666666666668,0,0,0.026041666666666668,32.65625,0)" xlink:href="#ar"/><use transform="matrix(0.026041666666666668,0,0,0.026041666666666668,51.84895833333333,0)" xlink:href="#as"/><use transform="matrix(0.026041666666666668,0,0,0.026041666666666668,82.94270833333333,0)" xlink:href="#aD"/><use transform="matrix(0.026041666666666668,0,0,0.026041666666666668,113.41145833333334,0)" xlink:href="#af"/><use transform="matrix(0.026041666666666668,0,0,0.026041666666666668,126.328125,0)" xlink:href="#ap"/></g><g id="S"><use transform="matrix(0.026041666666666668,0,0,0.026041666666666668,0,0)" xlink:href="#aD"/><use transform="matrix(0.026041666666666668,0,0,0.026041666666666668,30.46875,0)" xlink:href="#ap"/><use transform="matrix(0.026041666666666668,0,0,0.026041666666666668,62.44791666666667,0)" xlink:href="#ak"/><use transform="matrix(0.026041666666666668,0,0,0.026041666666666668,109.16666666666667,0)" xlink:href="#as"/><use transform="matrix(0.026041666666666668,0,0,0.026041666666666668,140.26041666666669,0)" xlink:href="#ao"/><use transform="matrix(0.026041666666666668,0,0,0.026041666666666668,171.77083333333334,0)" xlink:href="#at"/><use transform="matrix(0.026041666666666668,0,0,0.026041666666666668,189.47916666666666,0)" xlink:href="#aj"/><use transform="matrix(0.026041666666666668,0,0,0.026041666666666668,219.4270833333333,0)" xlink:href="#ar"/><use transform="matrix(0.026041666666666668,0,0,0.026041666666666668,240.33854166666669,0)" xlink:href="#af"/><use transform="matrix(0.026041666666666668,0,0,0.026041666666666668,253.2552083333333,0)" xlink:href="#ap"/><use transform="matrix(0.026041666666666668,0,0,0.026041666666666668,285.234375,0)" xlink:href="#aC"/></g><path d="M571 0L49-1490h339c138 427 271 775 384 1244 111-471 237-815 371-1244h337L970 0H571" id="aY"/><g id="T"><use transform="matrix(0.032552083333333336,0,0,0.032552083333333336,0,0)" xlink:href="#ad"/><use transform="matrix(0.032552083333333336,0,0,0.032552083333333336,18.717447916666668,0)" xlink:href="#aA"/><use transform="matrix(0.032552083333333336,0,0,0.032552083333333336,69.53125,0)" xlink:href="#aY"/><use transform="matrix(0.032552083333333336,0,0,0.032552083333333336,119.30338541666667,0)" xlink:href="#aw"/><use transform="matrix(0.032552083333333336,0,0,0.032552083333333336,159.79817708333334,0)" xlink:href="#ay"/><use transform="matrix(0.032552083333333336,0,0,0.032552083333333336,203.45052083333334,0)" xlink:href="#aM"/><use transform="matrix(0.032552083333333336,0,0,0.032552083333333336,247.94921875,0)" xlink:href="#ad"/><use transform="matrix(0.032552083333333336,0,0,0.032552083333333336,266.6666666666667,0)" xlink:href="#aF"/><use transform="matrix(0.032552083333333336,0,0,0.032552083333333336,314.6158854166667,0)" xlink:href="#ab"/><use transform="matrix(0.032552083333333336,0,0,0.032552083333333336,361.5885416666667,0)" xlink:href="#aH"/><use transform="matrix(0.032552083333333336,0,0,0.032552083333333336,410.9049479166667,0)" xlink:href="#ad"/><use transform="matrix(0.032552083333333336,0,0,0.032552083333333336,429.62239583333337,0)" xlink:href="#az"/><use transform="matrix(0.032552083333333336,0,0,0.032552083333333336,480.98958333333337,0)" xlink:href="#aA"/></g><g id="U"><use transform="matrix(0.026041666666666668,0,0,0.026041666666666668,0,0)" xlink:href="#at"/><use transform="matrix(0.026041666666666668,0,0,0.026041666666666668,17.447916666666668,0)" xlink:href="#af"/><use transform="matrix(0.026041666666666668,0,0,0.026041666666666668,30.364583333333336,0)" xlink:href="#as"/><use transform="matrix(0.026041666666666668,0,0,0.026041666666666668,61.458333333333336,0)" xlink:href="#ak"/><use transform="matrix(0.026041666666666668,0,0,0.026041666666666668,108.17708333333334,0)" xlink:href="#aB"/><use transform="matrix(0.026041666666666668,0,0,0.026041666666666668,140.83333333333334,0)" xlink:href="#ap"/><use transform="matrix(0.026041666666666668,0,0,0.026041666666666668,172.8125,0)" xlink:href="#ah"/><use transform="matrix(0.026041666666666668,0,0,0.026041666666666668,197.13541666666666,0)" xlink:href="#as"/><use transform="matrix(0.026041666666666668,0,0,0.026041666666666668,228.22916666666669,0)" xlink:href="#aC"/><use transform="matrix(0.026041666666666668,0,0,0.026041666666666668,256.3802083333333,0)" xlink:href="#at"/><use transform="matrix(0.026041666666666668,0,0,0.026041666666666668,273.828125,0)" xlink:href="#au"/><use transform="matrix(0.026041666666666668,0,0,0.026041666666666668,305.3645833333333,0)" xlink:href="#ag"/><use transform="matrix(0.026041666666666668,0,0,0.026041666666666668,338.0208333333333,0)" xlink:href="#af"/><use transform="matrix(0.026041666666666668,0,0,0.026041666666666668,350.9375,0)" xlink:href="#ap"/></g><path d="M126 0v-134l627-806v-11H146v-167h839v143L376-178v11h629V0H126" id="aZ"/><g id="V"><use transform="matrix(0.026041666666666668,0,0,0.026041666666666668,0,0)" xlink:href="#aj"/><use transform="matrix(0.026041666666666668,0,0,0.026041666666666668,29.947916666666668,0)" xlink:href="#ao"/><use transform="matrix(0.026041666666666668,0,0,0.026041666666666668,61.458333333333336,0)" xlink:href="#aj"/><use transform="matrix(0.026041666666666668,0,0,0.026041666666666668,91.40625,0)" xlink:href="#al"/><use transform="matrix(0.026041666666666668,0,0,0.026041666666666668,104.32291666666667,0)" xlink:href="#af"/><use transform="matrix(0.026041666666666668,0,0,0.026041666666666668,117.23958333333334,0)" xlink:href="#aC"/><use transform="matrix(0.026041666666666668,0,0,0.026041666666666668,145.390625,0)" xlink:href="#af"/><use transform="matrix(0.026041666666666668,0,0,0.026041666666666668,158.30729166666666,0)" xlink:href="#aC"/><use transform="matrix(0.026041666666666668,0,0,0.026041666666666668,186.45833333333331,0)" xlink:href="#ah"/><use transform="matrix(0.026041666666666668,0,0,0.026041666666666668,212.57812499999997,0)" xlink:href="#ar"/><use transform="matrix(0.026041666666666668,0,0,0.026041666666666668,231.7708333333333,0)" xlink:href="#as"/><use transform="matrix(0.026041666666666668,0,0,0.026041666666666668,263.38541666666663,0)" xlink:href="#aj"/><use transform="matrix(0.026041666666666668,0,0,0.026041666666666668,293.3333333333333,0)" xlink:href="#al"/><use transform="matrix(0.026041666666666668,0,0,0.026041666666666668,306.25,0)" xlink:href="#af"/><use transform="matrix(0.026041666666666668,0,0,0.026041666666666668,319.1666666666667,0)" xlink:href="#aZ"/><use transform="matrix(0.026041666666666668,0,0,0.026041666666666668,348.6197916666667,0)" xlink:href="#aj"/><use transform="matrix(0.026041666666666668,0,0,0.026041666666666668,378.56770833333337,0)" xlink:href="#ag"/><use transform="matrix(0.026041666666666668,0,0,0.026041666666666668,411.22395833333337,0)" xlink:href="#ap"/></g><g id="W"><use transform="matrix(0.026041666666666668,0,0,0.026041666666666668,0,0)" xlink:href="#aT"/><use transform="matrix(0.026041666666666668,0,0,0.026041666666666668,33.776041666666664,0)" xlink:href="#ap"/><use transform="matrix(0.026041666666666668,0,0,0.026041666666666668,65.75520833333333,0)" xlink:href="#aC"/><use transform="matrix(0.026041666666666668,0,0,0.026041666666666668,93.90625,0)" xlink:href="#as"/><use transform="matrix(0.026041666666666668,0,0,0.026041666666666668,125,0)" xlink:href="#as"/></g><path d="M370-1490V0H180v-1490h190" id="ba"/><g id="X"><use transform="matrix(0.026041666666666668,0,0,0.026041666666666668,0,0)" xlink:href="#ba"/><use transform="matrix(0.026041666666666668,0,0,0.026041666666666668,14.322916666666668,0)" xlink:href="#ao"/><use transform="matrix(0.026041666666666668,0,0,0.026041666666666668,45.052083333333336,0)" xlink:href="#aE"/><use transform="matrix(0.026041666666666668,0,0,0.026041666666666668,73.984375,0)" xlink:href="#as"/><use transform="matrix(0.026041666666666668,0,0,0.026041666666666668,105.078125,0)" xlink:href="#aC"/><use transform="matrix(0.026041666666666668,0,0,0.026041666666666668,133.22916666666666,0)" xlink:href="#at"/><use transform="matrix(0.026041666666666668,0,0,0.026041666666666668,150.67708333333331,0)" xlink:href="#af"/><use transform="matrix(0.026041666666666668,0,0,0.026041666666666668,163.59374999999997,0)" xlink:href="#aG"/><use transform="matrix(0.026041666666666668,0,0,0.026041666666666668,196.30208333333331,0)" xlink:href="#aj"/></g><path d="M690 20C314 20 94-261 94-744c0-482 221-766 596-766 376 0 597 284 597 766 0 483-219 764-597 764zm0-253c184 0 286-184 286-511 0-328-102-514-286-514-183 0-285 187-285 514s101 511 285 511" id="bb"/><use transform="matrix(0.026041666666666668,0,0,0.026041666666666668,0,0)" xlink:href="#bb" id="Y"/><path d="M783 20c-382 0-661-292-661-764 0-473 279-766 661-766 302 0 548 182 601 489h-190c-42-204-217-313-411-313-268 0-476 208-476 590 0 381 209 588 476 588 195 0 369-110 411-313h190c-52 303-296 489-601 489" id="bc"/><g id="Z"><use transform="matrix(0.026041666666666668,0,0,0.026041666666666668,0,0)" xlink:href="#bc"/><use transform="matrix(0.026041666666666668,0,0,0.026041666666666668,38.958333333333336,0)" xlink:href="#ap"/><use transform="matrix(0.026041666666666668,0,0,0.026041666666666668,70.9375,0)" xlink:href="#ao"/><use transform="matrix(0.026041666666666668,0,0,0.026041666666666668,102.44791666666667,0)" xlink:href="#at"/><use transform="matrix(0.026041666666666668,0,0,0.026041666666666668,119.89583333333334,0)" xlink:href="#af"/><use transform="matrix(0.026041666666666668,0,0,0.026041666666666668,132.8125,0)" xlink:href="#as"/><use transform="matrix(0.026041666666666668,0,0,0.026041666666666668,163.90625,0)" xlink:href="#ao"/><use transform="matrix(0.026041666666666668,0,0,0.026041666666666668,195.41666666666666,0)" xlink:href="#as"/></g></defs></g></svg>